<?xml version="1.0" standalone="no"?>
<!DOCTYPE svg PUBLIC "-//W3C//DTD SVG 20010904//EN"
 "http://www.w3.org/TR/2001/REC-SVG-20010904/DTD/svg10.dtd">
<svg version="1.0" xmlns="http://www.w3.org/2000/svg"
 width="692.000000pt" height="692.000000pt" viewBox="0 0 692.000000 692.000000"
 preserveAspectRatio="xMidYMid meet">

<g transform="translate(0.000000,692.000000) scale(0.100000,-0.100000)"
fill="#000000" stroke="none">
<path d="M3200 6594 c-222 -19 -476 -69 -685 -135 -429 -136 -811 -352 -1179
-669 -435 -374 -782 -919 -937 -1469 -114 -407 -142 -930 -73 -1391 111 -748
548 -1474 1171 -1946 453 -343 940 -551 1488 -636 166 -25 562 -36 727 -19
532 55 1004 222 1463 519 333 215 656 535 880 872 313 470 471 955 506 1556
14 226 1 502 -32 696 -137 810 -572 1506 -1262 2017 -254 188 -614 371 -918
465 -149 47 -393 101 -539 121 -109 15 -514 27 -610 19z m446 -695 c531 -51
1052 -292 1465 -679 466 -435 713 -953 759 -1595 12 -160 8 -293 -16 -495 -68
-574 -340 -1097 -779 -1493 -316 -286 -711 -494 -1115 -585 -213 -49 -294 -57
-550 -56 -258 0 -324 7 -531 59 -826 207 -1464 771 -1748 1544 -48 129 -91
295 -123 468 -29 163 -32 569 -5 743 58 369 177 680 374 980 106 161 152 219
273 344 316 326 734 578 1145 691 110 30 324 70 420 78 94 8 330 6 431 -4z"/>
<path d="M3315 4219 c-215 -33 -402 -152 -521 -330 -244 -367 -99 -886 301
-1079 121 -58 191 -74 325 -74 125 0 196 15 312 64 199 85 331 241 415 490 24
74 28 99 27 195 -1 222 -78 394 -243 547 -155 144 -406 220 -616 187z"/>
</g>
</svg>
