<?xml version="1.0" encoding="UTF-8"?>
<!-- Generator: visioncortex VTracer 0.6.3 -->
<svg version="1.1" xmlns="http://www.w3.org/2000/svg" width="800" height="800">
<path d="M0 0 C0.92 -0 1.83 -0.01 2.78 -0.01 C4.27 -0.01 4.27 -0.01 5.8 -0.01 C6.88 -0.01 7.95 -0.01 9.05 -0.01 C12.67 -0.02 16.28 -0.02 19.89 -0.02 C22.5 -0.02 25.11 -0.03 27.72 -0.03 C34.15 -0.04 40.58 -0.04 47.01 -0.05 C54.72 -0.05 62.42 -0.06 70.12 -0.07 C88.75 -0.09 107.37 -0.1 125.99 -0.11 C134.8 -0.11 143.61 -0.12 152.42 -0.12 C182.58 -0.14 212.74 -0.15 242.9 -0.16 C244.8 -0.16 246.69 -0.16 248.58 -0.16 C249.52 -0.16 250.46 -0.16 251.43 -0.16 C256.19 -0.16 260.95 -0.17 265.7 -0.17 C266.65 -0.17 267.59 -0.17 268.57 -0.17 C299.17 -0.17 329.78 -0.2 360.38 -0.23 C392.74 -0.27 425.1 -0.28 457.46 -0.29 C461.02 -0.29 464.57 -0.29 468.13 -0.29 C469 -0.29 469.88 -0.29 470.78 -0.29 C484.85 -0.29 498.92 -0.31 512.99 -0.33 C527.14 -0.35 541.29 -0.35 555.45 -0.34 C563.85 -0.34 572.25 -0.35 580.65 -0.37 C586.27 -0.38 591.89 -0.38 597.51 -0.37 C600.71 -0.36 603.91 -0.36 607.1 -0.38 C624.28 -0.45 639.44 0.53 655.08 8.32 C656.28 8.9 656.28 8.9 657.5 9.49 C664.43 12.98 670.41 17.09 676.33 22.13 C677.18 22.81 678.02 23.5 678.89 24.2 C696.53 39.11 708.34 60.43 712.33 83.13 C712.42 84.68 712.46 86.24 712.46 87.8 C712.46 88.71 712.47 89.63 712.47 90.57 C712.47 91.57 712.47 92.57 712.47 93.6 C712.47 94.68 712.47 95.75 712.47 96.85 C712.48 100.47 712.48 104.08 712.48 107.7 C712.48 110.31 712.49 112.92 712.49 115.52 C712.5 121.96 712.5 128.39 712.51 134.83 C712.51 142.53 712.52 150.24 712.53 157.94 C712.55 176.57 712.56 195.19 712.57 213.82 C712.57 222.63 712.58 231.44 712.58 240.25 C712.6 270.42 712.61 300.59 712.62 330.75 C712.62 332.65 712.62 334.54 712.62 336.43 C712.62 337.84 712.62 337.84 712.62 339.28 C712.62 344.04 712.63 348.8 712.63 353.56 C712.63 354.5 712.63 355.44 712.63 356.42 C712.64 387.03 712.66 417.64 712.69 448.25 C712.73 480.62 712.75 512.99 712.75 545.35 C712.75 548.91 712.75 552.46 712.75 556.02 C712.75 556.89 712.75 557.77 712.75 558.67 C712.75 572.74 712.77 586.82 712.79 600.9 C712.81 615.05 712.82 629.2 712.81 643.36 C712.8 651.76 712.81 660.16 712.83 668.57 C712.84 674.85 712.84 681.13 712.82 687.42 C712.82 689.95 712.83 692.49 712.84 695.02 C712.92 713.12 711.13 727.58 703.33 744.13 C702.91 745.02 702.5 745.91 702.07 746.82 C690 770.61 668.56 787.88 643.54 796.47 C637.3 798.44 631.25 800.25 624.66 800.26 C623.75 800.26 622.83 800.26 621.89 800.27 C620.39 800.27 620.39 800.27 618.86 800.26 C617.25 800.27 617.25 800.27 615.61 800.27 C611.99 800.28 608.38 800.28 604.76 800.28 C602.15 800.28 599.55 800.28 596.94 800.29 C590.5 800.3 584.07 800.3 577.64 800.3 C569.93 800.31 562.23 800.31 554.52 800.32 C535.89 800.34 517.27 800.35 498.64 800.36 C489.83 800.37 481.02 800.37 472.21 800.38 C442.04 800.4 411.88 800.41 381.71 800.42 C379.81 800.42 377.92 800.42 376.03 800.42 C375.09 800.42 374.15 800.42 373.18 800.42 C368.42 800.42 363.66 800.42 358.9 800.42 C357.96 800.42 357.02 800.42 356.04 800.42 C325.43 800.43 294.82 800.46 264.21 800.49 C231.84 800.52 199.47 800.54 167.11 800.55 C163.55 800.55 160 800.55 156.44 800.55 C155.57 800.55 154.69 800.55 153.79 800.55 C139.72 800.55 125.64 800.57 111.57 800.59 C97.41 800.61 83.26 800.61 69.11 800.6 C60.7 800.6 52.3 800.6 43.89 800.62 C37.61 800.64 31.33 800.63 25.05 800.62 C22.51 800.62 19.97 800.62 17.44 800.63 C-0.66 800.71 -15.12 798.92 -31.67 791.13 C-32.56 790.71 -33.45 790.29 -34.36 789.86 C-54.38 779.71 -69.88 762.74 -79.61 742.69 C-79.96 741.98 -80.31 741.26 -80.68 740.53 C-88.1 724.45 -88.24 708.62 -88.18 691.24 C-88.18 688.63 -88.19 686.01 -88.19 683.39 C-88.21 677.72 -88.21 672.05 -88.2 666.38 C-88.18 657.95 -88.19 649.52 -88.2 641.09 C-88.22 626.02 -88.22 610.96 -88.21 595.9 C-88.2 582.71 -88.2 569.53 -88.2 556.35 C-88.2 555.47 -88.2 554.6 -88.2 553.7 C-88.21 550.14 -88.21 546.59 -88.21 543.03 C-88.22 509.71 -88.21 476.39 -88.19 443.07 C-88.17 413.49 -88.17 383.91 -88.19 354.33 C-88.21 321.07 -88.22 287.81 -88.21 254.55 C-88.21 251 -88.2 247.45 -88.2 243.91 C-88.2 242.6 -88.2 242.6 -88.2 241.26 C-88.2 228.09 -88.2 214.92 -88.21 201.75 C-88.22 186.76 -88.22 171.78 -88.2 156.8 C-88.19 148.42 -88.19 140.05 -88.2 131.67 C-88.21 125.41 -88.2 119.14 -88.18 112.88 C-88.18 110.35 -88.18 107.82 -88.19 105.3 C-88.25 88.15 -87.26 73 -79.48 57.38 C-79.09 56.58 -78.7 55.79 -78.3 54.96 C-74.82 48.03 -70.7 42.05 -65.67 36.13 C-64.98 35.28 -64.3 34.44 -63.59 33.57 C-48.77 16.03 -23.68 0.02 0 0 Z " fill="#FD3C1F" transform="translate(87.66780835390091,-0.128801167011261)"/>
<path d="M0 0 C0.92 -0 1.83 -0.01 2.78 -0.01 C4.27 -0.01 4.27 -0.01 5.8 -0.01 C6.88 -0.01 7.95 -0.01 9.05 -0.01 C12.67 -0.02 16.28 -0.02 19.89 -0.02 C22.5 -0.02 25.11 -0.03 27.72 -0.03 C34.15 -0.04 40.58 -0.04 47.01 -0.05 C54.72 -0.05 62.42 -0.06 70.12 -0.07 C88.75 -0.09 107.37 -0.1 125.99 -0.11 C134.8 -0.11 143.61 -0.12 152.42 -0.12 C182.58 -0.14 212.74 -0.15 242.9 -0.16 C244.8 -0.16 246.69 -0.16 248.58 -0.16 C249.52 -0.16 250.46 -0.16 251.43 -0.16 C256.19 -0.16 260.95 -0.17 265.7 -0.17 C266.65 -0.17 267.59 -0.17 268.57 -0.17 C299.17 -0.17 329.78 -0.2 360.38 -0.23 C392.74 -0.27 425.1 -0.28 457.46 -0.29 C461.02 -0.29 464.57 -0.29 468.13 -0.29 C469 -0.29 469.88 -0.29 470.78 -0.29 C484.85 -0.29 498.92 -0.31 512.99 -0.33 C527.14 -0.35 541.29 -0.35 555.45 -0.34 C563.85 -0.34 572.25 -0.35 580.65 -0.37 C586.27 -0.38 591.89 -0.38 597.51 -0.37 C600.71 -0.36 603.91 -0.36 607.1 -0.38 C624.28 -0.45 639.44 0.53 655.08 8.32 C656.28 8.9 656.28 8.9 657.5 9.49 C664.43 12.98 670.41 17.09 676.33 22.13 C677.18 22.81 678.02 23.5 678.89 24.2 C696.53 39.11 708.34 60.43 712.33 83.13 C712.42 84.68 712.46 86.24 712.46 87.8 C712.46 88.71 712.47 89.63 712.47 90.57 C712.47 91.57 712.47 92.57 712.47 93.6 C712.47 94.68 712.47 95.75 712.47 96.85 C712.48 100.47 712.48 104.08 712.48 107.7 C712.48 110.31 712.49 112.92 712.49 115.52 C712.5 121.96 712.5 128.39 712.51 134.83 C712.51 142.53 712.52 150.24 712.53 157.94 C712.55 176.57 712.56 195.19 712.57 213.82 C712.57 222.63 712.58 231.44 712.58 240.25 C712.6 270.42 712.61 300.59 712.62 330.75 C712.62 332.65 712.62 334.54 712.62 336.43 C712.62 337.84 712.62 337.84 712.62 339.28 C712.62 344.04 712.63 348.8 712.63 353.56 C712.63 354.5 712.63 355.44 712.63 356.42 C712.64 387.03 712.66 417.64 712.69 448.25 C712.73 480.62 712.75 512.99 712.75 545.35 C712.75 548.91 712.75 552.46 712.75 556.02 C712.75 556.89 712.75 557.77 712.75 558.67 C712.75 572.74 712.77 586.82 712.79 600.9 C712.81 615.05 712.82 629.2 712.81 643.36 C712.8 651.76 712.81 660.16 712.83 668.57 C712.84 674.85 712.84 681.13 712.82 687.42 C712.82 689.95 712.83 692.49 712.84 695.02 C712.92 713.12 711.13 727.58 703.33 744.13 C702.91 745.02 702.5 745.91 702.07 746.82 C690 770.61 668.56 787.88 643.54 796.47 C637.3 798.44 631.25 800.25 624.66 800.26 C623.75 800.26 622.83 800.26 621.89 800.27 C620.39 800.27 620.39 800.27 618.86 800.26 C617.25 800.27 617.25 800.27 615.61 800.27 C611.99 800.28 608.38 800.28 604.76 800.28 C602.15 800.28 599.55 800.28 596.94 800.29 C590.5 800.3 584.07 800.3 577.64 800.3 C569.93 800.31 562.23 800.31 554.52 800.32 C535.89 800.34 517.27 800.35 498.64 800.36 C489.83 800.37 481.02 800.37 472.21 800.38 C442.04 800.4 411.88 800.41 381.71 800.42 C379.81 800.42 377.92 800.42 376.03 800.42 C375.09 800.42 374.15 800.42 373.18 800.42 C368.42 800.42 363.66 800.42 358.9 800.42 C357.96 800.42 357.02 800.42 356.04 800.42 C325.43 800.43 294.82 800.46 264.21 800.49 C231.84 800.52 199.47 800.54 167.11 800.55 C163.55 800.55 160 800.55 156.44 800.55 C155.57 800.55 154.69 800.55 153.79 800.55 C139.72 800.55 125.64 800.57 111.57 800.59 C97.41 800.61 83.26 800.61 69.11 800.6 C60.7 800.6 52.3 800.6 43.89 800.62 C37.61 800.64 31.33 800.63 25.05 800.62 C22.51 800.62 19.97 800.62 17.44 800.63 C-0.66 800.71 -15.12 798.92 -31.67 791.13 C-32.56 790.71 -33.45 790.29 -34.36 789.86 C-54.38 779.71 -69.88 762.74 -79.61 742.69 C-79.96 741.98 -80.31 741.26 -80.68 740.53 C-88.1 724.45 -88.24 708.62 -88.18 691.24 C-88.18 688.63 -88.19 686.01 -88.19 683.39 C-88.21 677.72 -88.21 672.05 -88.2 666.38 C-88.18 657.95 -88.19 649.52 -88.2 641.09 C-88.22 626.02 -88.22 610.96 -88.21 595.9 C-88.2 582.71 -88.2 569.53 -88.2 556.35 C-88.2 555.47 -88.2 554.6 -88.2 553.7 C-88.21 550.14 -88.21 546.59 -88.21 543.03 C-88.22 509.71 -88.21 476.39 -88.19 443.07 C-88.17 413.49 -88.17 383.91 -88.19 354.33 C-88.21 321.07 -88.22 287.81 -88.21 254.55 C-88.21 251 -88.2 247.45 -88.2 243.91 C-88.2 242.6 -88.2 242.6 -88.2 241.26 C-88.2 228.09 -88.2 214.92 -88.21 201.75 C-88.22 186.76 -88.22 171.78 -88.2 156.8 C-88.19 148.42 -88.19 140.05 -88.2 131.67 C-88.21 125.41 -88.2 119.14 -88.18 112.88 C-88.18 110.35 -88.18 107.82 -88.19 105.3 C-88.25 88.15 -87.26 73 -79.48 57.38 C-79.09 56.58 -78.7 55.79 -78.3 54.96 C-74.82 48.03 -70.7 42.05 -65.67 36.13 C-64.98 35.28 -64.3 34.44 -63.59 33.57 C-48.77 16.03 -23.68 0.02 0 0 Z M261.33 76.13 C260.05 76.32 258.77 76.52 257.45 76.71 C254.46 77.2 251.49 77.74 248.52 78.32 C247.46 78.52 246.41 78.73 245.32 78.94 C226.54 82.77 203.53 87.49 186.95 97.58 C184.56 98.99 182.34 99.95 179.76 100.95 C155.54 110.4 132.66 125.04 112.33 141.13 C111.34 141.91 110.35 142.69 109.32 143.49 C103.35 148.28 97.7 153.38 92.1 158.58 C89.9 160.61 87.67 162.57 85.39 164.5 C76.72 172.06 68.71 180.31 61.57 189.33 C59.53 191.88 57.44 194.35 55.3 196.81 C49.16 203.93 43.65 211.38 38.33 219.13 C37.91 219.74 37.49 220.35 37.05 220.98 C31.73 228.73 26.76 236.6 22.19 244.82 C20.49 247.84 18.7 250.79 16.89 253.75 C9.29 266.76 3.71 281.08 -1.67 295.13 C-2.07 296.14 -2.48 297.14 -2.9 298.18 C-10.64 318.31 -14.63 339.83 -17.29 361.16 C-17.62 363.73 -17.98 366.29 -18.35 368.86 C-21.57 392.87 -21.66 419.61 -17.17 443.43 C-16.6 446.51 -16.08 449.61 -15.57 452.71 C-13.16 466.83 -9.99 480.48 -5.67 494.13 C-5.35 495.16 -5.03 496.2 -4.7 497.27 C4.9 528.27 18.82 558.38 37.33 585.13 C37.89 585.95 37.89 585.95 38.47 586.79 C47.56 600.07 57.69 612.55 68.7 624.29 C70.75 626.5 72.73 628.74 74.69 631.03 C78.16 635 81.84 638.66 85.71 642.25 C86.4 642.89 87.08 643.54 87.79 644.2 C111.3 665.87 137.74 683.83 166.33 698.13 C167.05 698.49 167.77 698.86 168.51 699.24 C186.3 708.25 205.07 714.99 224.33 720.13 C225.4 720.45 226.47 720.78 227.58 721.11 C242.46 725.6 257.87 728.54 273.33 730.13 C274.17 730.22 275.01 730.3 275.88 730.39 C325.08 734.88 378.08 730.46 424.33 712.13 C425.3 711.75 426.27 711.37 427.27 710.98 C457.3 699.09 485.44 684.57 511.33 665.13 C511.91 664.7 512.48 664.27 513.08 663.82 C531.7 649.76 550.1 633.15 564.35 614.65 C566.06 612.48 567.83 610.43 569.66 608.37 C573.31 604.23 576.57 599.88 579.77 595.38 C580.33 594.59 580.9 593.8 581.48 592.98 C583.11 590.7 584.72 588.42 586.33 586.13 C586.74 585.56 587.14 584.98 587.56 584.39 C592.97 576.66 597.65 568.57 602.15 560.29 C603.33 558.13 604.54 555.98 605.74 553.83 C616.5 534.32 624.43 513.29 631.33 492.13 C631.71 491 632.08 489.87 632.47 488.7 C636.15 476.78 638.12 464.39 640.33 452.13 C640.52 451.17 640.7 450.21 640.89 449.22 C655.49 369.32 631.16 285.19 586.33 219.13 C582.2 213.3 577.82 207.68 573.33 202.13 C572.5 201.08 571.67 200.04 570.84 199 C566.54 193.66 562.06 188.52 557.45 183.46 C555.56 181.38 553.72 179.26 551.89 177.13 C545.95 170.32 539.5 163.94 532.62 158.08 C530.86 156.58 529.12 155.06 527.39 153.52 C469.17 102.21 392.7 72.29 315.05 72.74 C311.7 72.75 308.36 72.74 305.01 72.72 C290.25 72.7 275.92 73.89 261.33 76.13 Z " fill="#FEFCF1" transform="translate(87.66780835390091,-0.128801167011261)"/>
<path d="M0 0 C1.16 -0 2.33 -0 3.53 -0 C22.09 0.03 39.98 0.96 58.25 4.38 C59.19 4.55 60.13 4.72 61.09 4.89 C66.52 5.9 71.89 7.08 77.25 8.38 C78.33 8.63 78.33 8.63 79.44 8.89 C132.64 21.45 182.54 49.75 222.47 86.82 C224.74 88.9 227.03 90.94 229.38 92.94 C236.93 99.5 243.78 106.75 250.25 114.38 C251.05 115.28 251.85 116.19 252.67 117.13 C271.7 138.96 287.03 163.68 300.25 189.38 C300.64 190.13 301.03 190.89 301.43 191.67 C323.48 235.13 332.37 281.51 332.44 329.88 C332.44 330.82 332.44 331.76 332.44 332.74 C332.44 349.36 331.9 365.53 328.94 381.94 C328.71 383.2 328.49 384.46 328.26 385.76 C326.69 394.46 324.79 402.9 322.25 411.38 C321.99 412.38 321.73 413.39 321.46 414.43 C314.62 440.52 303.24 465.47 290.56 489.19 C290.05 490.15 289.54 491.11 289.02 492.1 C285.28 498.94 280.91 505.13 276.25 511.38 C274.77 513.48 273.32 515.62 271.88 517.75 C267.23 524.48 262.3 530.95 257.25 537.38 C256.14 538.79 256.14 538.79 255.02 540.24 C251.62 544.55 248.15 548.5 244.25 552.38 C242.88 553.76 241.52 555.14 240.15 556.52 C238.04 558.67 235.92 560.8 233.8 562.94 C232.69 564.05 231.59 565.17 230.49 566.29 C223.42 573.47 216.22 580.18 208.25 586.38 C207.56 586.92 206.87 587.46 206.17 588.02 C174.44 612.76 137.98 632.37 99.34 643.75 C97.35 644.35 95.36 644.95 93.37 645.56 C83.4 648.6 73.41 651.06 63.19 653.06 C62.42 653.21 61.66 653.36 60.88 653.52 C39.81 657.62 19.31 658.54 -2.12 658.62 C-3.11 658.63 -4.09 658.64 -5.11 658.64 C-17.81 658.69 -30.16 658.04 -42.75 656.38 C-44.5 656.18 -46.26 655.99 -48.01 655.8 C-112.97 648.04 -175.12 615.35 -222.75 571.38 C-223.77 570.45 -224.8 569.54 -225.82 568.62 C-237.15 558.4 -247.27 547.34 -256.75 535.38 C-257.27 534.73 -257.79 534.09 -258.32 533.43 C-267.11 522.58 -274.76 511.46 -281.75 499.38 C-282.42 498.24 -283.09 497.11 -283.79 495.94 C-285.83 492.45 -287.8 488.92 -289.75 485.38 C-290.42 484.17 -290.42 484.17 -291.1 482.94 C-302.06 462.96 -310.36 442.4 -317.19 420.69 C-317.4 420.02 -317.61 419.36 -317.82 418.68 C-321.81 405.99 -324.54 393.15 -326.81 380.06 C-326.97 379.17 -327.13 378.28 -327.3 377.36 C-329.91 362.41 -331.16 347.73 -331.12 332.56 C-331.12 331.71 -331.12 330.85 -331.12 329.97 C-331.03 296.81 -327.03 262.71 -315.75 231.38 C-315.44 230.49 -315.12 229.61 -314.8 228.71 C-307.71 208.89 -299.79 190.04 -288.78 172.08 C-287.53 170.01 -286.38 167.89 -285.25 165.75 C-276.09 149.05 -263.9 133.96 -251.75 119.38 C-250.95 118.41 -250.95 118.41 -250.14 117.44 C-240.26 105.64 -229.73 94.14 -217.93 84.22 C-216.1 82.67 -214.32 81.1 -212.54 79.5 C-203.42 71.36 -193.88 64.2 -183.75 57.38 C-183.08 56.92 -182.42 56.46 -181.73 55.99 C-164.32 44.13 -144.77 32.15 -124.84 25.14 C-122.29 24.21 -119.81 23.13 -117.31 22.06 C-97.33 13.76 -76.53 8.01 -55.25 4.06 C-54.07 3.84 -54.07 3.84 -52.87 3.62 C-35.31 0.56 -17.79 -0.03 0 0 Z M-112.66 103.25 C-114.96 104.49 -117.27 105.69 -119.58 106.9 C-138.8 117.08 -155.72 129.7 -171.75 144.38 C-172.71 145.23 -173.67 146.09 -174.66 146.97 C-194.78 164.96 -215.4 189.19 -225.75 214.38 C-226.66 216.24 -227.6 218.07 -228.55 219.92 C-245.21 252.25 -254.02 288.7 -253.88 325.06 C-253.87 326.3 -253.87 327.54 -253.86 328.81 C-253.56 377.9 -238.99 426.42 -211.75 467.38 C-211.34 468 -210.92 468.62 -210.49 469.27 C-204.25 478.55 -197.2 487.04 -189.75 495.38 C-189.23 495.96 -188.71 496.54 -188.18 497.14 C-182.97 502.96 -177.76 508.72 -171.73 513.72 C-169.79 515.34 -167.9 517 -166.01 518.68 C-154.13 529.09 -141.24 538.19 -127.75 546.38 C-126.71 547.01 -126.71 547.01 -125.64 547.66 C-78.07 576.22 -21.46 586.2 33.25 579.38 C34.72 579.2 34.72 579.2 36.21 579.02 C52.85 576.92 68.4 572.77 84.25 567.38 C85.01 567.13 85.76 566.88 86.54 566.62 C110.71 558.58 134.14 545.99 154.25 530.38 C154.78 529.98 155.31 529.58 155.86 529.17 C174.5 515.19 192.96 497.56 206.25 478.38 C206.87 477.49 206.87 477.49 207.5 476.59 C213.85 467.46 219.7 458.02 225.25 448.38 C225.59 447.78 225.94 447.19 226.29 446.58 C234.16 432.84 240.28 418.14 244.32 402.83 C244.98 400.37 245.68 397.97 246.46 395.55 C249.07 387.3 251.01 379.09 252.5 370.56 C252.66 369.63 252.83 368.7 252.99 367.74 C264.15 300.56 246.31 235.99 207.53 180.84 C202.83 174.33 197.6 168.34 192.25 162.38 C191.1 161.02 189.96 159.67 188.81 158.31 C180.01 148.37 170.52 139.58 159.9 131.62 C158.37 130.47 156.87 129.29 155.37 128.11 C128.98 107.65 97.53 92.76 65.25 84.38 C64.47 84.17 63.7 83.97 62.9 83.76 C5.78 69.15 -60.31 75 -112.66 103.25 Z " fill="#FD3C1F" transform="translate(398.75,72.625)"/>
<path d="M0 0 C0.89 0.35 1.78 0.7 2.69 1.06 C46.07 18.39 85.99 43.69 115 81 C115.72 81.91 116.43 82.82 117.17 83.76 C133.28 104.69 146.87 128.19 156 153 C156.56 154.5 156.56 154.5 157.12 156.03 C166.73 182.39 170.44 208 170.44 235.88 C170.44 237.26 170.44 237.26 170.44 238.67 C170.4 254.18 169.43 269.59 166.25 284.81 C166.08 285.63 165.92 286.44 165.75 287.28 C162.82 301.06 158.8 314.76 154 328 C153.62 329.08 153.24 330.17 152.84 331.28 C141.99 360.3 123.46 387.79 102 410 C101.27 410.76 100.54 411.52 99.79 412.3 C89.77 422.63 79.81 432.72 68 441 C67.31 441.48 66.62 441.97 65.92 442.47 C45.2 456.9 22.97 468.91 -1 477 C-1.93 477.32 -2.86 477.64 -3.82 477.97 C-19.72 483.33 -35.35 486.99 -52 489 C-52.93 489.12 -53.85 489.23 -54.81 489.35 C-119.27 497.11 -185.28 479.63 -236.76 439.87 C-239.19 437.93 -241.6 435.97 -244 434 C-244.96 433.25 -245.93 432.49 -246.92 431.71 C-251.32 428.27 -255.41 424.73 -259.3 420.7 C-261.08 418.92 -262.95 417.31 -264.88 415.69 C-269.7 411.51 -273.83 406.82 -278 402 C-278.44 401.5 -278.89 400.99 -279.34 400.47 C-285.89 393.02 -291.71 385.42 -297 377 C-297.61 376.07 -298.22 375.13 -298.85 374.17 C-309.72 357.14 -318.48 339.11 -325 320 C-325.28 319.18 -325.56 318.36 -325.85 317.52 C-333.34 295.35 -338.41 272.46 -339 249 C-339.03 248 -339.05 247 -339.08 245.96 C-340.08 202.93 -330.97 162.16 -311 124 C-310.18 122.29 -309.37 120.58 -308.56 118.88 C-300.21 102.22 -288.31 86.89 -276 73 C-275.52 72.46 -275.05 71.92 -274.55 71.36 C-233.24 24.86 -177.26 -3.33 -116 -12 C-115.15 -12.12 -114.31 -12.24 -113.44 -12.36 C-76.14 -17.41 -35.15 -13.91 0 0 Z M-168 77 C-168.6 77.3 -169.19 77.6 -169.81 77.91 C-187.08 86.66 -201.83 97.83 -216 111 C-216.67 111.61 -217.33 112.22 -218.02 112.85 C-239.76 133.63 -255.52 162.63 -263.25 191.44 C-263.5 192.34 -263.74 193.25 -264 194.18 C-267.66 208.48 -268.41 222.81 -268.38 237.5 C-268.37 238.33 -268.37 239.16 -268.37 240.01 C-268.33 253.98 -267.33 267.38 -264 281 C-263.79 281.86 -263.58 282.72 -263.37 283.61 C-255.76 313.77 -239.7 341.8 -218 364 C-217.15 364.91 -216.3 365.82 -215.43 366.76 C-189.59 393.84 -152.51 411.37 -116 418 C-114.83 418.23 -113.65 418.45 -112.45 418.68 C-91.71 421.97 -68.5 421.48 -48 417 C-47.05 416.8 -46.09 416.59 -45.11 416.38 C-19.28 410.72 4.35 400.26 26 385 C26.55 384.61 27.1 384.23 27.66 383.83 C42.71 373.03 56.73 359.44 67 344 C67.58 343.14 68.17 342.28 68.77 341.39 C70.58 338.63 72.3 335.83 74 333 C74.69 331.88 75.37 330.75 76.08 329.6 C84.71 315.13 91.61 299.33 96 283.06 C96.18 282.39 96.37 281.72 96.56 281.03 C100.07 266.75 100.41 251.94 100.38 237.31 C100.37 236.44 100.37 235.56 100.37 234.66 C100.33 221.09 99.6 208.16 96 195 C95.79 194.21 95.58 193.41 95.37 192.59 C87.18 162.14 71.2 134.96 49.34 112.39 C48.15 111.15 46.97 109.89 45.81 108.62 C14.82 75.81 -34.76 58.21 -79.02 56.8 C-109.95 56.34 -140.34 63 -168 77 Z " fill="#FEFBF0" transform="translate(484,163)"/>
<path d="M0 0 C1.18 0.01 2.37 0.02 3.58 0.03 C28.89 0.49 53.28 8.9 72.69 25.38 C73.4 25.94 74.11 26.51 74.85 27.1 C93.32 42.44 106.3 66.47 109.49 90.15 C110.82 105.27 111.13 121.75 106.69 136.38 C106.35 137.52 106.01 138.67 105.66 139.85 C96.94 166.44 79.62 186.3 55.69 200.38 C54.66 200.98 53.62 201.59 52.56 202.22 C28.54 215.27 -3.64 217.38 -29.58 209.92 C-57.96 200.97 -81.11 182.42 -95.75 156.44 C-108.63 131.14 -111.58 101.69 -102.8 74.6 C-97.97 60.43 -91.36 48.55 -81.31 37.38 C-80.81 36.82 -80.31 36.27 -79.8 35.69 C-71.3 26.37 -62.33 19.48 -51.31 13.38 C-50.42 12.86 -49.53 12.35 -48.61 11.83 C-33.85 3.9 -16.65 -0.21 0 0 Z " fill="#FEFCF1" transform="translate(398.3125,294.625)"/>
<path d="M0 0 C1.18 0.01 2.37 0.02 3.58 0.03 C28.89 0.49 53.28 8.9 72.69 25.38 C73.4 25.94 74.11 26.51 74.85 27.1 C82.43 33.4 90.72 42.22 94.69 51.38 C93.04 51.05 91.39 50.72 89.69 50.38 C89.69 48.73 89.69 47.07 89.69 45.38 C89.13 45.25 88.58 45.12 88 44.99 C85.47 44.32 83.07 43.45 80.62 42.5 C79.77 42.17 78.91 41.85 78.03 41.51 C75.65 40.36 74.25 39.5 72.69 37.38 C72.69 36.06 72.69 34.74 72.69 33.38 C70.38 33.38 68.07 33.38 65.69 33.38 C65.69 36.01 65.69 38.65 65.69 41.38 C67.01 41.38 68.33 41.38 69.69 41.38 C69.69 44.01 69.69 46.65 69.69 49.38 C68.37 49.38 67.05 49.38 65.69 49.38 C65.69 52.01 65.69 54.65 65.69 57.38 C63.05 57.38 60.41 57.38 57.69 57.38 C57.69 60.01 57.69 62.65 57.69 65.38 C55.05 65.38 52.41 65.38 49.69 65.38 C49.69 62.74 49.69 60.1 49.69 57.38 C47.05 57.38 44.41 57.38 41.69 57.38 C41.66 54.9 41.64 52.42 41.62 49.94 C41.62 49.23 41.61 48.52 41.6 47.79 C41.59 45.99 41.64 44.18 41.69 42.38 C42.69 41.38 42.69 41.38 46.25 41.31 C47.38 41.33 48.52 41.35 49.69 41.38 C49.69 38.74 49.69 36.1 49.69 33.38 C47.05 33.38 44.41 33.38 41.69 33.38 C41.69 28.75 41.69 24.13 41.69 19.38 C41.03 19.38 40.37 19.38 39.69 19.38 C39.69 18.71 39.69 18.06 39.69 17.38 C37.71 17.38 35.73 17.38 33.69 17.38 C33.58 16.26 33.48 15.15 33.38 14 C33.15 12.8 32.92 11.61 32.69 10.38 C31.7 9.71 30.71 9.06 29.69 8.38 C31.01 8.05 32.33 7.71 33.69 7.38 C31.05 7.38 28.41 7.38 25.69 7.38 C25.19 6.38 25.19 6.38 24.69 5.38 C22.37 4.97 20.03 4.63 17.69 4.38 C17.69 3.71 17.69 3.06 17.69 2.38 C3.33 2.87 3.33 2.87 -11.31 3.38 C-11.64 4.04 -11.97 4.69 -12.31 5.38 C-14.56 5.94 -14.56 5.94 -17.31 6.38 C-18.06 6.58 -18.8 6.79 -19.56 7 C-23.56 7.54 -27.34 6.94 -31.31 6.38 C-30.82 7.86 -30.82 7.86 -30.31 9.38 C-30.31 12.01 -30.31 14.65 -30.31 17.38 C-23.71 17.38 -17.11 17.38 -10.31 17.38 C-9.98 16.06 -9.65 14.74 -9.31 13.38 C-8.32 13.38 -7.33 13.38 -6.31 13.38 C-6.31 14.69 -6.31 16.01 -6.31 17.38 C-3.67 17.38 -1.03 17.38 1.69 17.38 C1.69 18.69 1.69 20.01 1.69 21.38 C3.01 21.38 4.33 21.38 5.69 21.38 C5.69 25.33 5.69 29.3 5.69 33.38 C12.29 33.38 18.89 33.38 25.69 33.38 C25.69 36.01 25.69 38.65 25.69 41.38 C23.05 41.38 20.41 41.38 17.69 41.38 C17.69 42.69 17.69 44.01 17.69 45.38 C19.01 45.38 20.33 45.38 21.69 45.38 C21.69 49.33 21.69 53.3 21.69 57.38 C20.04 57.38 18.39 57.38 16.69 57.38 C16.69 58.03 16.69 58.69 16.69 59.38 C17.41 59.23 18.13 59.09 18.88 58.94 C21.69 59.38 21.69 59.38 23.13 60.93 C24.39 62.71 25.57 64.51 26.69 66.38 C27.35 65.72 28.01 65.06 28.69 64.38 C28.69 65.03 28.69 65.69 28.69 66.38 C29.35 66.38 30.01 66.38 30.69 66.38 C31.18 68.05 31.18 68.05 31.69 69.75 C33.08 73.51 34.98 76.14 37.56 79.19 C46.72 90.08 48.66 101.58 47.69 115.38 C47.04 118.9 46.06 122.07 44.69 125.38 C44.41 126.04 44.14 126.71 43.86 127.39 C43.14 129.06 42.42 130.72 41.69 132.38 C41.31 133.7 40.96 135.03 40.69 136.38 C40.03 136.38 39.37 136.38 38.69 136.38 C38.69 138.02 38.69 139.68 38.69 141.38 C37.88 141.5 37.08 141.62 36.25 141.75 C35.4 141.96 34.56 142.16 33.69 142.38 C33.36 143.03 33.03 143.69 32.69 144.38 C31.7 144.38 30.71 144.38 29.69 144.38 C29.4 144.97 29.11 145.57 28.81 146.19 C26.24 151.19 26.24 151.19 22.06 152.56 C20.39 152.96 20.39 152.96 18.69 153.38 C18.19 157.33 18.19 157.33 17.69 161.38 C-3.43 161.38 -24.55 161.38 -46.31 161.38 C-46.31 156.1 -46.31 150.81 -46.31 145.38 C-44 145.04 -41.69 144.72 -39.31 144.38 C-38.32 144.04 -37.33 143.72 -36.31 143.38 C-35.98 144.37 -35.65 145.36 -35.31 146.38 C-34.98 145.06 -34.65 143.74 -34.31 142.38 C-44.21 141.88 -44.21 141.88 -54.31 141.38 C-54.31 137.41 -54.31 133.46 -54.31 129.38 C-62.23 129.38 -70.15 129.38 -78.31 129.38 C-78.31 125.42 -78.31 121.45 -78.31 117.38 C-79.63 117.38 -80.95 117.38 -82.31 117.38 C-82.31 116.06 -82.31 114.74 -82.31 113.38 C-80.99 113.38 -79.67 113.38 -78.31 113.38 C-78.31 108.1 -78.31 102.81 -78.31 97.38 C-75.67 97.38 -73.03 97.38 -70.31 97.38 C-70.31 92.1 -70.31 86.81 -70.31 81.38 C-67.67 81.38 -65.03 81.38 -62.31 81.38 C-62.31 76.1 -62.31 70.81 -62.31 65.38 C-67.59 65.38 -72.87 65.38 -78.31 65.38 C-78.31 62.74 -78.31 60.1 -78.31 57.38 C-75.67 57.38 -73.03 57.38 -70.31 57.38 C-70.31 54.74 -70.31 52.1 -70.31 49.38 C-67.67 49.38 -65.03 49.38 -62.31 49.38 C-62.31 45.42 -62.31 41.45 -62.31 37.38 C-66.6 37.38 -70.89 37.38 -75.31 37.38 C-75.31 36.38 -75.31 35.39 -75.31 34.38 C-75.64 35.37 -75.97 36.36 -76.31 37.38 C-76.97 37.38 -77.63 37.38 -78.31 37.38 C-78.31 38.69 -78.31 40.01 -78.31 41.38 C-80.8 42.06 -82.69 42.38 -85.31 42.38 C-83.03 39.66 -80.69 37.01 -78.31 34.38 C-77.54 33.51 -76.76 32.64 -75.96 31.75 C-68.63 23.96 -60.57 18.62 -51.31 13.38 C-50.42 12.86 -49.52 12.35 -48.59 11.82 C-33.82 3.91 -16.66 -0.21 0 0 Z " fill="#FEFAEE" transform="translate(398.3125,294.625)"/>
<path d="M0 0 C11.3 7.61 17.91 17.49 22.18 30.3 C23.09 46.62 20.49 57.39 10.18 70.3 C2.35 79.05 -8.13 83.84 -19.74 84.54 C-34.34 84.92 -45.44 81.26 -56.79 71.64 C-64.87 63.33 -70.58 52.02 -70.45 40.37 C-70.33 37.66 -70.1 35.01 -69.82 32.3 C-69.74 31.43 -69.67 30.56 -69.59 29.66 C-67.91 18.73 -60.2 9.32 -51.77 2.69 C-36.59 -8.19 -16.14 -9.7 0 0 Z " fill="#FD3E22" transform="translate(423.8203125,362.6953125)"/>
<path d="M0 0 C1.13 0.02 2.27 0.04 3.44 0.06 C3.93 2.04 3.93 2.04 4.44 4.06 C8.08 4.09 11.73 4.11 15.38 4.12 C16.42 4.13 17.46 4.14 18.53 4.15 C20.01 4.16 20.01 4.16 21.53 4.16 C22.44 4.17 23.36 4.17 24.3 4.18 C26.42 4.3 26.42 4.3 27.44 3.06 C28.96 2.96 30.48 2.92 32.01 2.92 C32.98 2.91 33.96 2.9 34.97 2.9 C36.04 2.9 37.11 2.9 38.21 2.89 C39.31 2.89 40.42 2.89 41.56 2.88 C43.91 2.88 46.27 2.88 48.63 2.88 C52.17 2.88 55.71 2.86 59.24 2.84 C72.77 2.81 86.01 3.37 99.44 5.06 C99.44 5.72 99.44 6.38 99.44 7.06 C98.44 6.99 97.44 6.92 96.42 6.85 C83.86 6.04 71.33 5.84 58.75 5.82 C55.34 5.81 51.92 5.78 48.51 5.75 C33.6 5.68 19.17 6.77 4.44 9.06 C3.74 9.17 3.04 9.28 2.32 9.39 C-1.41 9.97 -5.11 10.64 -8.81 11.38 C-9.88 11.58 -10.94 11.79 -12.03 12 C-20.83 13.77 -29.37 16.18 -37.91 18.93 C-41.56 20.06 -41.56 20.06 -43.56 20.06 C-43.56 19.4 -43.56 18.74 -43.56 18.06 C-40.1 17.57 -40.1 17.57 -36.56 17.06 C-36.56 16.07 -36.56 15.08 -36.56 14.06 C-37.22 14.06 -37.88 14.06 -38.56 14.06 C-38.56 13.4 -38.56 12.74 -38.56 12.06 C-35.22 12.62 -32.53 13.41 -29.56 15.06 C-29.56 14.4 -29.56 13.74 -29.56 13.06 C-28.56 12.87 -27.56 12.68 -26.54 12.48 C-25.24 12.22 -23.95 11.96 -22.62 11.69 C-21.34 11.43 -20.05 11.18 -18.72 10.91 C-17.68 10.63 -16.64 10.35 -15.56 10.06 C-15.23 9.4 -14.9 8.74 -14.56 8.06 C-15.22 8.06 -15.88 8.06 -16.56 8.06 C-16.56 7.4 -16.56 6.74 -16.56 6.06 C-14.58 6.06 -12.6 6.06 -10.56 6.06 C-10.56 6.72 -10.56 7.38 -10.56 8.06 C-8.58 8.06 -6.6 8.06 -4.56 8.06 C-4.58 6.93 -4.6 5.79 -4.62 4.62 C-4.55 0.08 -4.55 0.08 0 0 Z " fill="#FEF1E4" transform="translate(344.5625,67.9375)"/>
<path d="M0 0 C2.44 4.43 2.71 8.51 3.12 13.5 C3.25 15.01 3.25 15.01 3.38 16.55 C4.18 27.86 4.19 39.17 4.19 50.5 C4.19 51.44 4.19 52.38 4.19 53.35 C4.19 70.13 3.59 86.38 0.56 102.94 C0.35 104.17 0.13 105.41 -0.1 106.68 C-1.25 113.16 -2.51 119.59 -4 126 C-4.33 126 -4.66 126 -5 126 C-4.92 124.78 -4.83 123.57 -4.75 122.32 C-4.64 120.73 -4.54 119.15 -4.44 117.56 C-4.38 116.76 -4.33 115.96 -4.27 115.13 C-4.14 113.09 -4.06 111.04 -4 109 C-4.33 108.67 -4.66 108.34 -5 108 C-5.04 106 -5.04 104 -5 102 C-4.01 102 -3.02 102 -2 102 C-2 100.68 -2 99.36 -2 98 C-1.34 98 -0.68 98 0 98 C-0.01 96.86 -0.02 95.71 -0.04 94.54 C-0.04 93.04 -0.05 91.55 -0.06 90.06 C-0.07 89.31 -0.08 88.55 -0.09 87.78 C-0.1 85.85 -0.05 83.92 0 82 C0.5 81.5 0.5 81.5 1 81 C1.1 79.05 1.13 77.09 1.13 75.14 C1.13 73.25 1.13 73.25 1.14 71.33 C1.14 69.95 1.14 68.57 1.13 67.19 C1.13 65.79 1.13 64.38 1.14 62.97 C1.14 60.02 1.14 57.07 1.13 54.12 C1.12 50.33 1.13 46.54 1.13 42.75 C1.14 39.85 1.14 36.94 1.13 34.04 C1.13 32.64 1.13 31.24 1.14 29.85 C1.14 27.9 1.13 25.95 1.13 23.99 C1.13 22.88 1.13 21.77 1.13 20.63 C1.18 18.02 1.18 18.02 0 16 C-0.07 13.28 -0.09 10.59 -0.06 7.88 C-0.06 7.12 -0.05 6.37 -0.05 5.59 C-0.04 3.73 -0.02 1.86 0 0 Z " fill="#E2462F" transform="translate(727,352)"/>
<path d="M0 0 C7.88 0.88 7.88 0.88 9 2 C10.76 2.26 12.54 2.46 14.31 2.62 C15.28 2.72 16.24 2.82 17.24 2.91 C19.77 2.99 21.61 2.76 24 2 C24 3.65 24 5.3 24 7 C25.32 7 26.64 7 28 7 C28 7.66 28 8.32 28 9 C32.29 9 36.58 9 41 9 C41 9.33 41 9.66 41 10 C46.44 10.5 46.44 10.5 52 11 C52 11.33 52 11.66 52 12 C57.46 12.02 62.92 12.04 68.38 12.05 C70.23 12.06 72.08 12.07 73.93 12.08 C84.34 12.12 94.63 12.06 105 11 C105 10.34 105 9.68 105 9 C108.63 9 112.26 9 116 9 C112.16 11.56 108.46 12.2 104 13 C103 13.19 102 13.38 100.98 13.57 C66.45 18.98 32.22 13.77 0 1 C0 0.67 0 0.34 0 0 Z " fill="#E54836" transform="translate(328,568)"/>
<path d="M0 0 C0.99 0.5 0.99 0.5 2 1 C0.1 1.95 -1.8 2.9 -3.71 3.84 C-5.19 4.59 -6.65 5.36 -8.1 6.16 C-12.26 8.4 -15.14 9.49 -20 9 C-20 9.99 -20 10.98 -20 12 C-17.36 12 -14.72 12 -12 12 C-12 13.32 -12 14.64 -12 16 C-15.96 16 -19.92 16 -24 16 C-24 14.68 -24 13.36 -24 12 C-25.44 12.31 -26.88 12.62 -28.31 12.94 C-29.11 13.11 -29.91 13.29 -30.74 13.46 C-33.15 14 -33.15 14 -36 15 C-36 15.99 -36 16.98 -36 18 C-36.85 17.98 -37.69 17.95 -38.56 17.93 C-45.81 17.69 -45.81 17.69 -52.88 19 C-58.95 20.87 -65.7 20.15 -72 20 C-72 19.67 -72 19.34 -72 19 C-71.19 18.85 -70.38 18.71 -69.55 18.56 C-47.78 14.61 -26.17 10.27 -5.54 2.02 C-3.71 1.29 -1.86 0.64 0 0 Z " fill="#FEEEE1" transform="translate(520,708)"/>
<path d="M0 0 C0.66 0.33 1.32 0.66 2 1 C2.06 2.18 2.12 3.36 2.18 4.58 C2.27 6.14 2.35 7.69 2.44 9.25 C2.48 10.03 2.52 10.8 2.56 11.61 C2.62 12.74 2.62 12.74 2.68 13.89 C2.72 14.58 2.76 15.27 2.79 15.99 C2.94 17.99 2.94 17.99 3.5 19.83 C4.04 22.18 4.13 24.27 4.15 26.68 C4.15 27.61 4.16 28.53 4.16 29.49 C4.17 30.49 4.17 31.48 4.17 32.51 C4.17 33.55 4.17 34.59 4.18 35.67 C4.18 37.88 4.19 40.09 4.19 42.3 C4.19 45.63 4.21 48.96 4.22 52.28 C4.3 81.1 4.3 81.1 1 91 C0.77 93.57 0.58 96.12 0.44 98.69 C0.39 99.39 0.35 100.09 0.31 100.81 C0.2 102.54 0.1 104.27 0 106 C-0.66 106 -1.32 106 -2 106 C-2.33 109.3 -2.66 112.6 -3 116 C-3.66 116 -4.32 116 -5 116 C-5.33 116.99 -5.66 117.98 -6 119 C-5.38 114.49 -4.67 110.01 -3.84 105.54 C-3.63 104.32 -3.41 103.11 -3.18 101.86 C-2.73 99.36 -2.28 96.87 -1.82 94.37 C0.95 78.81 1.17 63.41 1.13 47.65 C1.12 44.74 1.13 41.83 1.14 38.91 C1.14 30.34 1.08 21.85 0.22 13.3 C-0.05 10.45 -0.1 7.62 -0.06 4.75 C-0.05 3.84 -0.04 2.92 -0.04 1.98 C-0.02 1 -0.02 1 0 0 Z " fill="#FEDDD1" transform="translate(729,357)"/>
<path d="M0 0 C0 0.33 0 0.66 0 1 C-4.37 1.14 -8.75 1.29 -13.12 1.43 C-14.61 1.48 -16.09 1.52 -17.57 1.57 C-25.72 1.84 -33.85 2.06 -42 2 C-42 2.66 -42 3.32 -42 4 C-43.98 4 -45.96 4 -48 4 C-48 4.66 -48 5.32 -48 6 C-45.36 6 -42.72 6 -40 6 C-43.52 8.35 -45.51 8.38 -49.69 8.62 C-51.46 8.74 -51.46 8.74 -53.26 8.85 C-54.17 8.9 -55.07 8.95 -56 9 C-55.67 7.68 -55.34 6.36 -55 5 C-58.01 5 -60.98 5.07 -63.98 5.22 C-65.39 5.29 -65.39 5.29 -66.82 5.36 C-67.78 5.4 -68.75 5.45 -69.75 5.5 C-70.73 5.55 -71.72 5.6 -72.73 5.64 C-75.15 5.76 -77.58 5.88 -80 6 C-80 5.67 -80 5.34 -80 5 C-53.85 0.35 -26.55 -4.09 0 0 Z " fill="#FDFCEE" transform="translate(424,150)"/>
<path d="M0 0 C-3.96 0.66 -7.92 1.32 -12 2 C-11.34 2.99 -10.68 3.98 -10 5 C-10.66 5.66 -11.32 6.32 -12 7 C-14.31 6.69 -14.31 6.69 -17 6 C-20.37 5.24 -23.49 4.87 -26.94 4.83 C-28.37 4.81 -28.37 4.81 -29.83 4.79 C-30.85 4.78 -31.87 4.76 -32.92 4.75 C-35.08 4.72 -37.24 4.69 -39.4 4.65 C-42.81 4.61 -46.21 4.56 -49.62 4.52 C-52.9 4.48 -56.19 4.43 -59.48 4.38 C-60.5 4.37 -61.53 4.36 -62.58 4.35 C-63.53 4.34 -64.47 4.32 -65.45 4.3 C-66.28 4.29 -67.11 4.28 -67.97 4.27 C-70 4 -70 4 -72 2 C-70.79 1.98 -69.59 1.96 -68.34 1.94 C-62.73 1.84 -57.11 1.74 -51.5 1.62 C-49.99 1.59 -49.99 1.59 -48.46 1.56 C-35.81 1.3 -23.24 0.91 -10.65 -0.43 C-9.81 -0.52 -8.96 -0.6 -8.09 -0.7 C-7.04 -0.82 -7.04 -0.82 -5.96 -0.95 C-4 -1 -4 -1 0 0 Z " fill="#FEDDD0" transform="translate(448,729)"/>
<path d="M0 0 C0.98 -0.01 1.95 -0.01 2.96 -0.02 C4.03 -0.02 5.1 -0.02 6.2 -0.02 C7.31 -0.03 8.41 -0.03 9.55 -0.03 C11.91 -0.04 14.27 -0.04 16.62 -0.04 C20.16 -0.04 23.7 -0.06 27.24 -0.08 C40.76 -0.11 54.01 0.45 67.43 2.15 C67.43 2.81 67.43 3.47 67.43 4.15 C66.44 4.07 65.46 4 64.44 3.93 C51.62 3.08 38.82 2.99 25.98 3.01 C22.41 3.02 18.84 3.01 15.27 3.01 C12.97 3.01 10.67 3.01 8.37 3.01 C7.32 3.01 6.27 3.01 5.18 3.01 C-0.43 3.02 -5.93 3.28 -11.51 3.92 C-15.21 4.32 -18.86 4.21 -22.57 4.15 C-19.73 1.31 -16.82 1.73 -13.01 1.58 C-8.28 1.38 -4.55 0.02 0 0 Z " fill="#FED2C0" transform="translate(376.569580078125,70.854736328125)"/>
<path d="M0 0 C5.15 7.73 8.17 16.87 10.69 25.75 C10.88 26.4 11.07 27.05 11.26 27.73 C15.45 43.18 16.42 58.2 16.19 74.12 C16.17 75.97 16.16 77.82 16.15 79.66 C16.11 84.11 16.06 88.55 16 93 C15.67 93 15.34 93 15 93 C15 82.44 15 71.88 15 61 C14.34 61 13.68 61 13 61 C12.95 60.37 12.9 59.74 12.85 59.09 C12.61 56.21 12.37 53.32 12.12 50.44 C12.05 49.45 11.97 48.46 11.89 47.44 C11.35 41.22 10.75 35.47 7.9 29.83 C6.86 27.71 6.7 26.1 6.56 23.75 C6.14 19.07 4.75 15.35 3 11 C3 10.34 3 9.68 3 9 C2.34 9 1.68 9 1 9 C0.3 5.85 0 3.27 0 0 Z " fill="#E34532" transform="translate(568,327)"/>
<path d="M0 0 C0.33 0 0.66 0 1 0 C1 4.95 1 9.9 1 15 C0.34 15 -0.32 15 -1 15 C-1.93 25.41 -2.1 35.68 -2 46.12 C-1.91 55.8 -1.96 65.36 -3 75 C-2.34 75 -1.68 75 -1 75 C-1 80.28 -1 85.56 -1 91 C-1.33 91 -1.66 91 -2 91 C-7.86 60.95 -5.62 29.88 0 0 Z " fill="#FDD9CB" transform="translate(150,349)"/>
<path d="M0 0 C0.33 0 0.66 0 1 0 C1 2.97 1 5.94 1 9 C0.34 9 -0.32 9 -1 9 C-0.99 10.15 -0.98 11.29 -0.96 12.47 C-0.96 14 -0.95 15.53 -0.94 17.06 C-0.93 17.81 -0.92 18.57 -0.91 19.34 C-0.9 22.72 -0.98 25.88 -1.5 29.23 C-2.26 34.92 -2.14 40.58 -2.12 46.31 C-2.13 47.5 -2.13 48.7 -2.14 49.92 C-2.14 51.06 -2.13 52.19 -2.13 53.36 C-2.13 54.4 -2.13 55.43 -2.13 56.5 C-2.17 59 -2.17 59 -1 61 C-0.69 64.11 -0.49 67.23 -0.28 70.35 C-0.29 72.92 -0.29 72.92 1 74 C1.07 75.85 1.08 77.71 1.06 79.56 C1.05 80.57 1.04 81.59 1.04 82.63 C1.02 83.41 1.01 84.19 1 85 C0.67 85 0.34 85 0 85 C-5.93 59.14 -8.53 25.59 0 0 Z " fill="#E74B34" transform="translate(220,359)"/>
<path d="M0 0 C3.38 3.38 2.91 8.2 3.44 12.81 C3.7 16.08 3.7 16.08 6 18 C5.67 18.99 5.34 19.98 5 21 C5.33 21.33 5.66 21.66 6 22 C6.04 24.33 6.04 26.67 6 29 C5.34 29 4.68 29 4 29 C4.01 29.87 4.02 30.75 4.04 31.65 C4.11 41.8 3.65 51.87 3 62 C2.34 62 1.68 62 1 62 C1 61.4 1 60.8 1.01 60.18 C1.03 53.89 1.04 47.59 1.05 41.3 C1.06 38.95 1.07 36.61 1.08 34.27 C1.09 30.88 1.09 27.5 1.1 24.11 C1.1 23.08 1.11 22.05 1.11 20.98 C1.11 13.94 0.69 7.01 0 0 Z " fill="#FBD8D0" transform="translate(582,368)"/>
<path d="M0 0 C0.33 0 0.66 0 1 0 C1.52 8.37 -0.01 15.9 -2 24 C-2.29 25.23 -2.58 26.47 -2.88 27.74 C-5.09 36.64 -8.16 44.7 -12 53 C-12.33 53 -12.66 53 -13 53 C-13 51.35 -13 49.7 -13 48 C-12.34 48 -11.68 48 -11 48 C-11.16 47.29 -11.33 46.59 -11.5 45.86 C-12.02 42.9 -12.1 40.19 -12.06 37.19 C-12.05 36.21 -12.04 35.24 -12.04 34.23 C-12.02 33.49 -12.01 32.76 -12 32 C-11.34 32 -10.68 32 -10 32 C-9.34 32.66 -8.68 33.32 -8 34 C-6 30.99 -5.74 30.1 -5.5 26.69 C-5.16 22.88 -4.38 19.59 -3 16 C-2.34 16 -1.68 16 -1 16 C-1.01 15.1 -1.02 14.19 -1.04 13.26 C-1.04 12.08 -1.05 10.9 -1.06 9.69 C-1.08 7.93 -1.08 7.93 -1.1 6.14 C-1 3 -1 3 0 0 Z " fill="#ED4C34" transform="translate(582,420)"/>
<path d="M0 0 C0.33 0 0.66 0 1 0 C1 4.95 1 9.9 1 15 C-0.32 15 -1.64 15 -3 15 C-2.66 16.11 -2.66 16.11 -2.31 17.25 C-2 20 -2 20 -3.38 22.25 C-4.24 23.18 -5.1 24.1 -6 25 C-6.23 26.51 -6.41 28.04 -6.56 29.56 C-6.69 30.8 -6.69 30.8 -6.82 32.07 C-6.88 32.7 -6.94 33.34 -7 34 C-7.66 34 -8.32 34 -9 34 C-9 36.31 -9 38.62 -9 41 C-11.3 37.55 -11.05 36.12 -10.43 32.15 C-9.76 28.82 -8.81 25.6 -7.75 22.38 C-7.53 21.7 -7.32 21.02 -7.09 20.32 C-4.88 13.49 -2.47 6.74 0 0 Z " fill="#ED543D" transform="translate(88,290)"/>
<path d="M0 0 C-3.03 2.02 -5.75 3.05 -9.16 4.22 C-11.2 4.95 -11.2 4.95 -13 7 C-15.54 7.31 -15.54 7.31 -18.62 7.44 C-22.43 7.69 -25.61 8.01 -29.12 9.5 C-36.89 12.78 -45.72 12.14 -54 12 C-54 11.67 -54 11.34 -54 11 C-53.38 10.92 -52.76 10.84 -52.12 10.76 C-38.02 8.9 -24.74 6.07 -11.24 1.55 C-10.21 1.21 -9.17 0.87 -8.1 0.51 C-7.19 0.2 -6.27 -0.12 -5.33 -0.44 C-3 -1 -3 -1 0 0 Z " fill="#E3513A" transform="translate(486,640)"/>
<path d="M0 0 C1.96 -0.03 3.92 -0.05 5.88 -0.06 C6.97 -0.07 8.06 -0.09 9.18 -0.1 C12 0 12 0 14 1 C15.87 1.23 17.75 1.41 19.62 1.56 C20.63 1.65 21.63 1.73 22.66 1.82 C23.43 1.88 24.21 1.94 25 2 C25 2.66 25 3.32 25 4 C38.66 4.74 52.33 5.4 66 6 C66 6.33 66 6.66 66 7 C43.77 7.54 21.64 6.55 0 1 C0 0.67 0 0.34 0 0 Z " fill="#FBCFC0" transform="translate(344,647)"/>
<path d="M0 0 C2.18 3.26 2.25 4.16 2.23 7.93 C2.23 8.93 2.23 9.93 2.23 10.96 C2.22 12.04 2.21 13.12 2.2 14.23 C2.19 15.34 2.19 16.44 2.19 17.58 C2.18 21.12 2.15 24.65 2.12 28.19 C2.11 30.58 2.11 32.98 2.1 35.37 C2.08 41.25 2.04 47.12 2 53 C1.34 53 0.68 53 0 53 C-0.66 56.3 -1.32 59.6 -2 63 C-2.66 62.67 -3.32 62.34 -4 62 C-3.56 58.63 -3.09 55.35 -2.25 52.05 C1.49 37.36 1.28 20.74 -0.58 5.74 C-1 2 -1 2 0 0 Z " fill="#ED624A" transform="translate(507,376)"/>
<path d="M0 0 C0.33 1.32 0.66 2.64 1 4 C0.01 4.5 0.01 4.5 -1 5 C-1.73 7.31 -2.4 9.65 -3 12 C-3.66 12 -4.32 12 -5 12 C-5 12.99 -5 13.98 -5 15 C-5.66 15 -6.32 15 -7 15 C-6.81 16.05 -6.63 17.1 -6.44 18.19 C-6.05 21.57 -6.12 23.76 -7 27 C-7.99 27.33 -8.98 27.66 -10 28 C-10.29 28.97 -10.58 29.94 -10.88 30.94 C-12 34 -12 34 -14.62 35.38 C-15.41 35.58 -16.19 35.79 -17 36 C-14.66 27.82 -10.9 20.53 -7.02 13 C-5.63 10.27 -4.28 7.52 -2.93 4.76 C-2 3 -2 3 0 0 Z " fill="#FEE0D2" transform="translate(180,274)"/>
<path d="M0 0 C0 0.33 0 0.66 0 1 C-14.52 1.33 -29.04 1.66 -44 2 C-44 2.66 -44 3.32 -44 4 C-48.62 4 -53.24 4 -58 4 C-53.31 1.65 -49.27 1.07 -44.12 0.38 C-43.16 0.24 -42.19 0.11 -41.2 -0.02 C-27.47 -1.73 -13.73 -1.58 0 0 Z " fill="#E25741" transform="translate(420,221)"/>
<path d="M0 0 C1.53 4.08 0.63 7.79 0 12 C-0.66 12 -1.32 12 -2 12 C-2 15.63 -2 19.26 -2 23 C-1.34 23 -0.68 23 0 23 C0.06 23.61 0.12 24.23 0.18 24.86 C0.27 25.67 0.35 26.48 0.44 27.31 C0.52 28.11 0.6 28.91 0.68 29.74 C0.95 32.16 0.95 32.16 2 35 C2.66 35 3.32 35 4 35 C4 36.32 4 37.64 4 39 C4.66 39 5.32 39 6 39 C6 40.32 6 41.64 6 43 C7.32 43 8.64 43 10 43 C9.5 45.48 9.5 45.48 9 48 C2.35 42.05 -2.82 32.45 -3.59 23.48 C-3.83 15.71 -3.53 7.05 0 0 Z " fill="#E85640" transform="translate(357,384)"/>
<path d="M0 0 C0.33 0 0.66 0 1 0 C1.03 0.85 1.05 1.69 1.08 2.57 C1.17 5.73 1.27 8.9 1.37 12.06 C1.42 13.43 1.46 14.79 1.5 16.16 C1.56 18.13 1.62 20.1 1.68 22.07 C1.72 23.25 1.76 24.44 1.79 25.66 C1.99 28.84 2.47 31.86 3 35 C3.14 37.16 3.24 39.33 3.32 41.49 C3.36 42.69 3.4 43.89 3.44 45.12 C3.48 46.36 3.52 47.6 3.56 48.88 C3.61 50.14 3.65 51.4 3.69 52.7 C3.8 55.8 3.9 58.9 4 62 C3.67 62 3.34 62 3 62 C-0.96 41.45 -0.3 20.83 0 0 Z " fill="#ED6855" transform="translate(68,384)"/>
<path d="M0 0 C0.56 1.94 0.56 1.94 1 4 C0.67 4.33 0.34 4.66 0 5 C-0.1 6.13 -0.21 7.27 -0.31 8.44 C-1 12 -1 12 -3.06 13.44 C-3.7 13.62 -4.34 13.81 -5 14 C-4.67 16.31 -4.34 18.62 -4 21 C-3.34 21 -2.68 21 -2 21 C-2 21.66 -2 22.32 -2 23 C-5.96 23.5 -5.96 23.5 -10 24 C-10.33 24.99 -10.66 25.98 -11 27 C-11.66 27 -12.32 27 -13 27 C-11.73 23.7 -10.32 20.58 -8.65 17.46 C-7.99 16.22 -7.99 16.22 -7.32 14.95 C-6.86 14.1 -6.41 13.25 -5.94 12.38 C-5.03 10.68 -4.12 8.98 -3.21 7.27 C-2.81 6.52 -2.41 5.78 -2 5.01 C-0.88 2.88 -0.88 2.88 0 0 Z " fill="#F34C30" transform="translate(632,503)"/>
<path d="M0 0 C11.25 1.12 21.47 5.09 32 9 C32 9.33 32 9.66 32 10 C29.36 10 26.72 10 24 10 C24 9.34 24 8.68 24 8 C23.02 7.96 22.05 7.93 21.04 7.89 C19.77 7.82 18.5 7.76 17.19 7.69 C15.92 7.63 14.66 7.57 13.36 7.51 C9.79 6.97 9.23 6.6 7 4 C4.97 3.22 4.97 3.22 2.81 2.81 C1.55 2.54 0.3 2.28 -1 2 C-0.67 1.34 -0.34 0.68 0 0 Z " fill="#E8432E" transform="translate(440,225)"/>
<path d="M0 0 C1.22 -0 2.45 -0.01 3.71 -0.01 C9.86 -0.01 15.8 0.17 21.88 1.12 C21.88 1.46 21.88 1.78 21.88 2.12 C17.57 2.3 13.27 2.46 8.97 2.61 C7.52 2.66 6.06 2.72 4.6 2.77 C-5.07 3.16 -14.47 3.04 -24.12 2.12 C-24.12 1.79 -24.12 1.47 -24.12 1.12 C-16.07 0.1 -8.11 -0.03 0 0 Z " fill="#FDCDBE" transform="translate(402.125,148.875)"/>
<path d="M0 0 C0.33 0 0.66 0 1 0 C1.33 1.98 1.66 3.96 2 6 C1.34 6 0.68 6 0 6 C-0.14 7.05 -0.29 8.1 -0.44 9.19 C-1.63 17.26 -1.63 17.26 -3 20 C-3.66 20 -4.32 20 -5 20 C-5.66 24.29 -6.32 28.58 -7 33 C-7.66 33 -8.32 33 -9 33 C-9.5 35.48 -9.5 35.48 -10 38 C-11.04 34.81 -10.94 32.91 -9.96 29.73 C-9.59 28.5 -9.59 28.5 -9.21 27.25 C-8.93 26.38 -8.66 25.52 -8.38 24.62 C-7.96 23.3 -7.96 23.3 -7.55 21.94 C-5.24 14.55 -2.71 7.25 0 0 Z " fill="#FDD4C3" transform="translate(162,310)"/>
<path d="M0 0 C5.43 0.57 10.84 1.25 16.25 2 C23.15 2.94 30.05 3.55 37 4 C37 4.33 37 4.66 37 5 C29.74 5 22.48 5 15 5 C15 6.65 15 8.3 15 10 C13.68 10 12.36 10 11 10 C11 8.35 11 6.7 11 5 C11.66 4.67 12.32 4.34 13 4 C12.31 3.88 11.63 3.76 10.92 3.63 C10.02 3.47 9.12 3.3 8.19 3.12 C7.29 2.96 6.4 2.8 5.48 2.63 C3 2 3 2 0 0 Z " fill="#FDE3D6" transform="translate(337,726)"/>
<path d="M0 0 C1.97 2.96 2.95 5.47 4.12 8.81 C6.56 15.29 9.7 21.07 13.23 27 C14.59 29.31 15.85 31.59 17 34 C13.61 30.87 11.39 28.43 10 24 C9.34 24 8.68 24 8 24 C8 23.01 8 22.02 8 21 C7.34 21 6.68 21 6 21 C6 19.68 6 18.36 6 17 C5.01 17 4.02 17 3 17 C0.82 13.73 0.9 12.75 1 9 C0.67 8.67 0.34 8.34 0 8 C-0.14 5.33 -0.04 2.68 0 0 Z " fill="#E94E35" transform="translate(295,432)"/>
<path d="M0 0 C3.06 -0.03 6.12 -0.05 9.19 -0.06 C10.05 -0.07 10.92 -0.08 11.81 -0.09 C16 -0.1 19.91 -0.08 24 1 C24 1.66 24 2.32 24 3 C29.44 3.5 29.44 3.5 35 4 C35.5 5.49 35.5 5.49 36 7 C30.25 6.37 24.75 5.33 19.12 4 C12.74 2.53 6.55 1.42 0 1 C0 0.67 0 0.34 0 0 Z " fill="#EB4A34" transform="translate(432,151)"/>
<path d="M0 0 C0.33 0 0.66 0 1 0 C1.02 1.3 1.02 1.3 1.04 2.64 C1.3 24.18 1.3 24.18 4.07 45.51 C5.28 51.68 5.28 51.68 4 55 C4 54.01 4 53.02 4 52 C3.34 52 2.68 52 2 52 C2 48.7 2 45.4 2 42 C1.34 42 0.68 42 0 42 C0 28.14 0 14.28 0 0 Z " fill="#FDCFC0" transform="translate(215,388)"/>
<path d="M0 0 C0 0.33 0 0.66 0 1 C-1.52 1.02 -1.52 1.02 -3.08 1.04 C-14.94 1.39 -24.21 4.04 -34 11 C-34.66 11 -35.32 11 -36 11 C-36 10.34 -36 9.68 -36 9 C-35.34 9 -34.68 9 -34 9 C-34.33 7.68 -34.66 6.36 -35 5 C-33.35 5.33 -31.7 5.66 -30 6 C-30 5.01 -30 4.02 -30 3 C-28.35 3 -26.7 3 -25 3 C-25 2.34 -25 1.68 -25 1 C-16.52 -1.57 -8.7 -0.79 0 0 Z " fill="#FEDED0" transform="translate(406,356)"/>
<path d="M0 0 C6.23 0.38 11.78 2.12 17.63 4.18 C21.07 5.39 24.41 6.4 28 7 C28 7.66 28 8.32 28 9 C28.58 9.12 29.15 9.25 29.75 9.38 C32.02 10.01 33.93 10.89 36 12 C32.7 13.13 31.06 12.92 27.91 11.49 C27.13 11.14 26.35 10.8 25.55 10.45 C24.73 10.07 23.91 9.7 23.06 9.31 C15.48 5.97 8.01 3.18 0 1 C0 0.67 0 0.34 0 0 Z " fill="#E54A36" transform="translate(469,158)"/>
<path d="M0 0 C0.99 0.66 1.98 1.32 3 2 C2.67 3.65 2.34 5.3 2 7 C0.91 7.23 -0.19 7.45 -1.31 7.69 C-5.54 9.19 -6 10.19 -8 14 C-8.99 14 -9.98 14 -11 14 C-11 15.32 -11 16.64 -11 18 C-12.65 18.33 -14.3 18.66 -16 19 C-11.19 12.18 -5.67 6.1 0 0 Z " fill="#EE4B33" transform="translate(162,175)"/>
<path d="M0 0 C2.63 3.94 3.77 8.01 5.19 12.5 C5.62 13.8 5.62 13.8 6.05 15.13 C6.32 15.96 6.58 16.8 6.86 17.66 C7.1 18.42 7.34 19.18 7.59 19.96 C8 22 8 22 7 25 C6.73 24.4 6.46 23.8 6.19 23.19 C4.29 19.69 2.8 18.27 -1 17 C-0.5 15.51 -0.5 15.51 0 14 C0.07 11.61 0.08 9.21 0.06 6.81 C0.05 5.54 0.04 4.27 0.04 2.96 C0.02 1.98 0.01 1.01 0 0 Z " fill="#F04335" transform="translate(154,467)"/>
<path d="M0 0 C1 2 1 2 0.69 4.06 C0 6 0 6 -2 7 C-2.72 8.64 -3.39 10.31 -4 12 C-4.66 12 -5.32 12 -6 12 C-6 12.99 -6 13.98 -6 15 C-6.66 15 -7.32 15 -8 15 C-8.1 15.95 -8.21 16.9 -8.31 17.88 C-9 21 -9 21 -12 23 C-12.99 22.67 -13.98 22.34 -15 22 C-13.88 20.37 -13.88 20.37 -12.73 18.71 C-11.74 17.27 -10.74 15.82 -9.75 14.38 C-9.26 13.66 -8.77 12.95 -8.26 12.21 C-5.47 8.16 -2.72 4.1 0 0 Z " fill="#FDDACD" transform="translate(681,574)"/>
<path d="M0 0 C1.32 0 2.64 0 4 0 C4 0.66 4 1.32 4 2 C5.65 2 7.3 2 9 2 C9 2.66 9 3.32 9 4 C9.99 4 10.98 4 12 4 C12 4.66 12 5.32 12 6 C12.66 6 13.32 6 14 6 C14 6.66 14 7.32 14 8 C14.74 7.96 15.49 7.92 16.25 7.88 C19.09 8 20.59 8.57 23 10 C23 10.66 23 11.32 23 12 C23.99 12.33 24.98 12.66 26 13 C25.01 13.5 25.01 13.5 24 14 C21.39 12.87 18.9 11.68 16.38 10.38 C15.65 10.01 14.93 9.64 14.19 9.26 C9.29 6.74 4.54 4.12 0 1 C0 0.67 0 0.34 0 0 Z " fill="#FEDDCF" transform="translate(335,487)"/>
<path d="M0 0 C3.96 3.96 4.25 8.89 4.27 14.23 C4.27 14.96 4.26 15.69 4.25 16.44 C4.26 17.16 4.27 17.89 4.27 18.63 C4.26 23.45 3.52 27.43 2 32 C1.67 32 1.34 32 1 32 C0.67 29.36 0.34 26.72 0 24 C0.99 23.67 1.98 23.34 3 23 C3 19.04 3 15.08 3 11 C2.34 11 1.68 11 1 11 C0.67 11.66 0.34 12.32 0 13 C0 8.71 0 4.42 0 0 Z " fill="#E84E38" transform="translate(442,385)"/>
<path d="M0 0 C0.66 0 1.32 0 2 0 C2 1.32 2 2.64 2 4 C2.66 4 3.32 4 4 4 C4 5.65 4 7.3 4 9 C4.66 9 5.32 9 6 9 C6.33 11.31 6.66 13.62 7 16 C7.33 16 7.66 16 8 16 C8 17.65 8 19.3 8 21 C8.66 21.33 9.32 21.66 10 22 C10 24.31 10 26.62 10 29 C7.62 26.62 7.11 24.84 6.05 21.66 C5.7 20.6 5.35 19.53 4.98 18.44 C4.62 17.33 4.25 16.21 3.88 15.06 C3.5 13.95 3.13 12.84 2.75 11.7 C0 3.39 0 3.39 0 0 Z " fill="#E9523B" transform="translate(637,308)"/>
<path d="M0 0 C1.39 3.9 0.82 7.61 0.31 11.62 C0.21 12.65 0.21 12.65 0.11 13.69 C-0.14 15.66 -0.14 15.66 -1 19 C-2.89 20.27 -2.89 20.27 -5 21 C-6.71 22.54 -6.71 22.54 -8 24 C-5.29 14.46 -5.29 14.46 -3.44 10.31 C-1.95 6.89 -0.96 3.6 0 0 Z " fill="#EF5438" transform="translate(641,479)"/>
<path d="M0 0 C1.79 0.06 3.58 0.15 5.38 0.25 C6.87 0.32 6.87 0.32 8.4 0.39 C11 1 11 1 12.35 3.05 C12.57 3.69 12.78 4.34 13 5 C14.65 4.67 16.3 4.34 18 4 C18 4.99 18 5.98 18 7 C18.64 7.12 19.28 7.25 19.94 7.38 C20.96 7.68 20.96 7.68 22 8 C22.33 8.66 22.66 9.32 23 10 C14.88 7.91 7.53 4.65 0 1 C0 0.67 0 0.34 0 0 Z " fill="#E94A37" transform="translate(260,700)"/>
<path d="M0 0 C-0.12 1.88 -0.12 1.88 -1 4 C-5.86 6.43 -10.7 6.21 -16 6 C-16 6.66 -16 7.32 -16 8 C-18.97 7.5 -18.97 7.5 -22 7 C-22 6.67 -22 6.34 -22 6 C-21.47 5.85 -20.93 5.71 -20.38 5.56 C-17.96 4.89 -15.54 4.23 -13.12 3.56 C-12.28 3.33 -11.44 3.1 -10.57 2.87 C-9.37 2.53 -9.37 2.53 -8.13 2.19 C-7.02 1.89 -7.02 1.89 -5.88 1.57 C-0.72 0 -0.72 0 0 0 Z " fill="#EC4E37" transform="translate(446,499)"/>
<path d="M0 0 C0.33 0 0.66 0 1 0 C1.03 1.46 1.05 2.92 1.06 4.38 C1.07 5.19 1.09 6 1.1 6.84 C1 9 1 9 0 11 C0.01 14.02 0.13 17.03 0.26 20.05 C-0.03 23.34 -0.8 24.61 -3 27 C-3.66 26.67 -4.32 26.34 -5 26 C-4.53 20.12 -3.5 14.98 -1.7 9.38 C-0.78 6.25 -0.35 3.23 0 0 Z " fill="#FEE4D9" transform="translate(582,430)"/>
<path d="M0 0 C0.66 0 1.32 0 2 0 C1.62 2.44 1.62 2.44 1 5 C0.01 5.5 0.01 5.5 -1 6 C-1.66 8.53 -1.66 8.53 -2 11 C-3.65 10.67 -5.3 10.34 -7 10 C-7 10.99 -7 11.98 -7 13 C-8.98 13.99 -8.98 13.99 -11 15 C-9.26 8.83 -4.42 4.42 0 0 Z " fill="#F3432C" transform="translate(370,367)"/>
<path d="M0 0 C-0.55 0.18 -1.11 0.36 -1.68 0.55 C-2.4 0.8 -3.13 1.05 -3.88 1.31 C-4.59 1.56 -5.31 1.8 -6.05 2.05 C-8.34 2.96 -8.34 2.96 -10 6 C-10.72 5.81 -11.44 5.63 -12.19 5.44 C-15.13 4.98 -17.14 5.26 -20 6 C-20 6.99 -20 7.98 -20 9 C-22.97 8.67 -25.94 8.34 -29 8 C-24.4 4.93 -19.22 3.84 -13.94 2.31 C-12.82 1.98 -11.71 1.65 -10.56 1.3 C-9.5 0.99 -8.43 0.68 -7.34 0.36 C-6.36 0.08 -5.39 -0.21 -4.38 -0.5 C-2 -1 -2 -1 0 0 Z " fill="#E64B31" transform="translate(322,83)"/>
<path d="M0 0 C6.27 0 12.54 0 19 0 C19 0.66 19 1.32 19 2 C20.32 1.67 21.64 1.34 23 1 C23 1.66 23 2.32 23 3 C25.48 3.5 25.48 3.5 28 4 C24.53 5.16 21.94 4.85 18.36 4.22 C17.29 4.04 16.22 3.86 15.12 3.67 C14.01 3.47 12.89 3.27 11.75 3.06 C10.62 2.87 9.5 2.67 8.34 2.47 C5.56 1.99 2.78 1.5 0 1 C0 0.67 0 0.34 0 0 Z " fill="#FDDFCE" transform="translate(444,75)"/>
<path d="M0 0 C1.62 1.69 1.62 1.69 3 4 C2.19 6.75 2.19 6.75 1 9 C0.01 9 -0.98 9 -2 9 C-2 10.65 -2 12.3 -2 14 C-2.66 14 -3.32 14 -4 14 C-4.33 14.99 -4.66 15.98 -5 17 C-5.66 17 -6.32 17 -7 17 C-5.17 11 -2.93 5.55 0 0 Z " fill="#F0533A" transform="translate(235,318)"/>
<path d="M0 0 C-3.45 2.3 -5.94 2.47 -10 3 C-10.33 3.33 -10.66 3.66 -11 4 C-12.56 4.16 -14.13 4.25 -15.69 4.32 C-16.64 4.36 -17.58 4.4 -18.55 4.44 C-20.04 4.5 -20.04 4.5 -21.56 4.56 C-22.56 4.61 -23.56 4.65 -24.58 4.69 C-27.06 4.8 -29.53 4.9 -32 5 C-32 4.67 -32 4.34 -32 4 C-28.17 3.32 -24.33 2.66 -20.5 2 C-18.88 1.71 -18.88 1.71 -17.23 1.42 C-11.4 0.43 -5.92 -0.23 0 0 Z " fill="#FEDBCC" transform="translate(376,151)"/>
<path d="M0 0 C0.66 0.33 1.32 0.66 2 1 C0.09 1.95 -1.81 2.9 -3.73 3.84 C-5.16 4.57 -6.58 5.34 -7.96 6.16 C-13.35 9.24 -17.87 9.45 -24 9 C-20.89 6.93 -18.39 6.11 -14.81 5.06 C-10.91 3.9 -7.09 2.7 -3.31 1.19 C-2.22 0.8 -1.13 0.4 0 0 Z " fill="#FDD5C6" transform="translate(520,708)"/>
<path d="M0 0 C0.5 0.99 0.5 0.99 1 2 C2.65 2 4.3 2 6 2 C6 2.33 6 2.66 6 3 C-1.24 4.13 -8.37 4.15 -15.69 4.12 C-17.5 4.13 -17.5 4.13 -19.35 4.14 C-21.1 4.13 -21.1 4.13 -22.89 4.13 C-23.94 4.13 -24.99 4.13 -26.08 4.13 C-28.83 4.01 -31.32 3.62 -34 3 C-34 2.67 -34 2.34 -34 2 C-27.85 1.12 -27.85 1.12 -26 1 C-25.67 1.33 -25.34 1.66 -25 2 C-21.38 2.25 -17.75 2.19 -14.12 2.19 C-12.6 2.21 -12.6 2.21 -11.04 2.22 C-10.06 2.23 -9.08 2.23 -8.07 2.23 C-7.17 2.23 -6.27 2.24 -5.34 2.24 C-2.73 2.16 -2.73 2.16 0 0 Z " fill="#FEE4D5" transform="translate(414,504)"/>
<path d="M0 0 C3.05 1.36 5.15 2.9 7.5 5.27 C8.14 5.91 8.78 6.55 9.44 7.21 C10.1 7.89 10.76 8.56 11.44 9.25 C12.09 9.91 12.75 10.56 13.42 11.24 C17.16 15.01 20.67 18.87 24 23 C23.67 23.66 23.34 24.32 23 25 C22.59 24.55 22.17 24.1 21.75 23.64 C19.84 21.57 17.92 19.5 16 17.44 C15.35 16.73 14.7 16.03 14.04 15.3 C10.06 11.04 5.98 7.13 1.47 3.43 C0.98 2.96 0.5 2.49 0 2 C0 1.34 0 0.68 0 0 Z " fill="#D4402D" transform="translate(521,265)"/>
<path d="M0 0 C3.63 0.66 7.26 1.32 11 2 C11.33 3.65 11.66 5.3 12 7 C13.65 7.33 15.3 7.66 17 8 C17 8.66 17 9.32 17 10 C17.66 10 18.32 10 19 10 C18.67 10.66 18.34 11.32 18 12 C15 10.19 12 8.38 9 6.56 C8.14 6.05 7.28 5.53 6.4 5 C5.59 4.5 4.77 4.01 3.94 3.5 C3.18 3.05 2.43 2.59 1.65 2.12 C1.11 1.75 0.56 1.38 0 1 C0 0.67 0 0.34 0 0 Z " fill="#EB4832" transform="translate(216,675)"/>
<path d="M0 0 C0.66 0 1.32 0 2 0 C1.38 4.96 -0.8 8.94 -3.06 13.31 C-3.63 14.42 -3.63 14.42 -4.21 15.56 C-5.13 17.37 -6.06 19.19 -7 21 C-7.33 19.68 -7.66 18.36 -8 17 C-7.34 17 -6.68 17 -6 17 C-5.67 14.03 -5.34 11.06 -5 8 C-4.01 8 -3.02 8 -2 8 C-2.33 6.35 -2.66 4.7 -3 3 C-2.01 3.33 -1.02 3.66 0 4 C0 2.68 0 1.36 0 0 Z " fill="#FFE6D5" transform="translate(501,435)"/>
<path d="M0 0 C0.33 0 0.66 0 1 0 C0.53 7.07 -0.75 13.8 -2.3 20.7 C-3.1 24.47 -3.62 28.17 -4 32 C-4.33 32 -4.66 32 -5 32 C-5.29 23.86 -4.18 16.02 -3 8 C-2.34 8 -1.68 8 -1 8 C-1.02 6.87 -1.04 5.73 -1.06 4.56 C-1 1 -1 1 0 0 Z " fill="#FEE0D0" transform="translate(76,324)"/>
<path d="M0 0 C1.55 3.09 2.3 4.78 2.85 8 C2.98 8.74 3.11 9.49 3.24 10.25 C3.37 11.01 3.49 11.78 3.62 12.56 C3.76 13.33 3.89 14.1 4.03 14.89 C4.56 17.96 5 20.88 5 24 C4.34 24 3.68 24 3 24 C3 22.68 3 21.36 3 20 C2.01 19.67 1.02 19.34 0 19 C0 12.73 0 6.46 0 0 Z " fill="#FDDACE" transform="translate(72,452)"/>
<path d="M0 0 C7.1 3.79 14.29 8.29 20 14 C19.01 14.5 19.01 14.5 18 15 C14.31 13.77 12.72 11.72 10 9 C9.34 9 8.68 9 8 9 C7.34 8.34 6.68 7.68 6 7 C4.96 6.16 3.92 5.33 2.88 4.5 C1.93 3.67 0.98 2.85 0 2 C0 1.34 0 0.68 0 0 Z " fill="#E04331" transform="translate(242,599)"/>
<path d="M0 0 C1.37 3.82 0.68 7.07 0 11 C-0.66 11 -1.32 11 -2 11 C-2 12.65 -2 14.3 -2 16 C-2.66 16 -3.32 16 -4 16 C-4 17.65 -4 19.3 -4 21 C-4.66 21.33 -5.32 21.66 -6 22 C-5.17 14.36 -3.06 7.05 0 0 Z " fill="#E95741" transform="translate(227,336)"/>
<path d="M0 0 C0 0.66 0 1.32 0 2 C0.66 2 1.32 2 2 2 C2 2.99 2 3.98 2 5 C2.99 5.33 3.98 5.66 5 6 C3 7 3 7 -0.04 6 C-1.22 5.53 -2.41 5.05 -3.62 4.56 C-4.81 4.09 -6 3.62 -7.23 3.13 C-8.14 2.76 -9.06 2.38 -10 2 C-10 1.67 -10 1.34 -10 1 C-3.38 0 -3.38 0 0 0 Z " fill="#FCE2D8" transform="translate(310,632)"/>
<path d="M0 0 C0 0.66 0 1.32 0 2 C1.18 2.19 1.18 2.19 2.38 2.38 C5 3 5 3 7 5 C0.95 4.45 -4.31 3.1 -10 1 C-10 0.67 -10 0.34 -10 0 C-6.3 -0.95 -3.7 -0.95 0 0 Z " fill="#FEDFD3" transform="translate(372,501)"/>
<path d="M0 0 C0.66 0.33 1.32 0.66 2 1 C0.71 6.54 -0.92 11.7 -3 17 C-3.33 17 -3.66 17 -4 17 C-4.48 8.76 -4.48 8.76 -2.56 5.69 C-2.05 5.13 -1.53 4.57 -1 4 C-0.29 1.85 -0.29 1.85 0 0 Z " fill="#E94931" transform="translate(717,489)"/>
<path d="M0 0 C0.33 0.66 0.66 1.32 1 2 C0.36 2.91 -0.28 3.81 -0.94 4.75 C-2.61 7.39 -3.54 8.99 -4 12 C-5.32 12.33 -6.64 12.66 -8 13 C-8 13.66 -8 14.32 -8 15 C-9.32 14.67 -10.64 14.34 -12 14 C-11.2 13.24 -11.2 13.24 -10.39 12.46 C-6.37 8.54 -2.89 4.82 0 0 Z " fill="#ED5538" transform="translate(487,465)"/>
<path d="M0 0 C0.33 1.32 0.66 2.64 1 4 C0.34 4 -0.32 4 -1 4 C-1 5.98 -1 7.96 -1 10 C-2.32 10 -3.64 10 -5 10 C-5 10.99 -5 11.98 -5 13 C-5.66 13 -6.32 13 -7 13 C-7 13.66 -7 14.32 -7 15 C-7.66 14.67 -8.32 14.34 -9 14 C-6.34 9 -3.74 4.3 0 0 Z " fill="#FEE7D6" transform="translate(312,338)"/>
<path d="M0 0 C2.31 0.33 4.62 0.66 7 1 C7.33 1.99 7.66 2.98 8 4 C11.47 3.5 11.47 3.5 15 3 C15 4.65 15 6.3 15 8 C9.52 6.45 4.89 3.84 0 1 C0 0.67 0 0.34 0 0 Z " fill="#E94430" transform="translate(239,689)"/>
<path d="M0 0 C3.87 1.04 7.49 2.04 11 4 C11 4.99 11 5.98 11 7 C12.44 8.69 12.44 8.69 14 10 C10.19 8.65 7.35 6.95 4.19 4.44 C3.4 3.82 2.61 3.2 1.79 2.56 C0.91 1.79 0.91 1.79 0 1 C0 0.67 0 0.34 0 0 Z " fill="#E94B33" transform="translate(366,432)"/>
<path d="M0 0 C0.66 0.99 1.32 1.98 2 3 C1.67 3.99 1.34 4.98 1 6 C0.01 6.33 -0.98 6.66 -2 7 C-2 7.66 -2 8.32 -2 9 C-2.66 9 -3.32 9 -4 9 C-4.33 9.66 -4.66 10.32 -5 11 C-5.66 11 -6.32 11 -7 11 C-7 11.66 -7 12.32 -7 13 C-7.66 13 -8.32 13 -9 13 C-7.51 9.72 -5.61 7.07 -3.38 4.25 C-2.74 3.45 -2.11 2.65 -1.46 1.83 C-0.98 1.22 -0.5 0.62 0 0 Z " fill="#FEDFD0" transform="translate(202,243)"/>
<path d="M0 0 C4.54 4.14 7.72 8.82 11 14 C10.34 14.66 9.68 15.32 9 16 C6 10.25 6 10.25 6 8 C5.34 8 4.68 8 4 8 C3 7 2 6 1 5 C0.34 5 -0.32 5 -1 5 C-0.67 3.35 -0.34 1.7 0 0 Z " fill="#E74634" transform="translate(431,369)"/>
<path d="M0 0 C1.12 3.75 1.12 3.75 0 6 C-0.99 6 -1.98 6 -3 6 C-3 6.99 -3 7.98 -3 9 C-3.66 9 -4.32 9 -5 9 C-5.29 9.6 -5.58 10.2 -5.88 10.81 C-7 13 -7 13 -9 16 C-9.66 15.67 -10.32 15.34 -11 15 C-9.36 12.69 -7.71 10.37 -6.06 8.06 C-5.59 7.4 -5.13 6.74 -4.64 6.06 C-1.11 1.11 -1.11 1.11 0 0 Z " fill="#E8533C" transform="translate(256,287)"/>
<path d="M0 0 C7.24 2.14 13.47 5.23 20 9 C20 9.33 20 9.66 20 10 C17.69 10.19 17.69 10.19 15 10 C13.44 8.56 13.44 8.56 12 7 C9.9 6.29 9.9 6.29 8 6 C8 5.34 8 4.68 8 4 C6.02 4 4.04 4 2 4 C2 3.34 2 2.68 2 2 C1.34 2 0.68 2 0 2 C0 1.34 0 0.68 0 0 Z " fill="#DF4631" transform="translate(472,235)"/>
<path d="M0 0 C-5.03 2.6 -9.08 3.13 -14.69 3.06 C-15.39 3.06 -16.09 3.05 -16.81 3.05 C-18.54 3.04 -20.27 3.02 -22 3 C-22 2.67 -22 2.34 -22 2 C-7.4 -0.3 -7.4 -0.3 0 0 Z " fill="#E1543C" transform="translate(371,74)"/>
<path d="M0 0 C2.47 0.5 2.47 0.5 5 1 C5 1.66 5 2.32 5 3 C6.32 3.66 7.64 4.32 9 5 C9 6.32 9 7.64 9 9 C9.66 9 10.32 9 11 9 C10.67 9.66 10.34 10.32 10 11 C8.7 9.92 7.41 8.84 6.12 7.75 C5.41 7.15 4.69 6.54 3.95 5.92 C2.03 4.03 1.04 2.46 0 0 Z " fill="#FDE0D4" transform="translate(213,571)"/>
<path d="M0 0 C2.03 2.03 2.67 3.29 3.73 5.91 C4.04 6.67 4.35 7.44 4.66 8.22 C4.98 9.01 5.3 9.81 5.62 10.62 C5.95 11.43 6.27 12.23 6.61 13.05 C7.41 15.03 8.21 17.02 9 19 C8.34 19.33 7.68 19.66 7 20 C4 14.38 4 14.38 4 11 C3.34 11 2.68 11 2 11 C0.81 7.12 0 4.08 0 0 Z " fill="#E24A3B" transform="translate(162,492)"/>
<path d="M0 0 C0.33 0 0.66 0 1 0 C1 1.98 1 3.96 1 6 C0.34 6 -0.32 6 -1 6 C-1 7.65 -1 9.3 -1 11 C-1.66 11 -2.32 11 -3 11 C-2.67 12.65 -2.34 14.3 -2 16 C-3.32 16 -4.64 16 -6 16 C-4.28 10.55 -2.15 5.29 0 0 Z " fill="#FEDCD1" transform="translate(574,461)"/>
<path d="M0 0 C1.06 1.81 1.06 1.81 2 4 C1.67 4.99 1.34 5.98 1 7 C0.34 7 -0.32 7 -1 7 C-1 8.65 -1 10.3 -1 12 C-2.98 12.99 -2.98 12.99 -5 14 C-4.55 12.42 -4.09 10.83 -3.62 9.25 C-3.37 8.37 -3.11 7.49 -2.85 6.58 C-2.08 4.24 -1.16 2.17 0 0 Z " fill="#FDD8CC" transform="translate(302,353)"/>
<path d="M0 0 C3.18 2.92 5.25 5.83 7.31 9.62 C7.84 10.59 8.38 11.55 8.93 12.54 C9.28 13.35 9.63 14.16 10 15 C9.67 15.66 9.34 16.32 9 17 C8.34 16.67 7.68 16.34 7 16 C6.5 14 6.5 14 6 12 C5.34 11.67 4.68 11.34 4 11 C3.69 10.01 3.38 9.02 3.06 8 C2.71 7.01 2.36 6.02 2 5 C1.01 4.67 0.02 4.34 -1 4 C-0.67 2.68 -0.34 1.36 0 0 Z " fill="#DD4C38" transform="translate(681,232)"/>
<path d="M0 0 C4.29 0 8.58 0 13 0 C13 0.33 13 0.66 13 1 C10.42 1.53 7.84 2.05 5.25 2.56 C4.16 2.79 4.16 2.79 3.04 3.02 C-0.67 3.75 -3.39 4.1 -7 3 C-6 2 -6 2 -2.94 1.94 C-1.48 1.97 -1.48 1.97 0 2 C0 1.34 0 0.68 0 0 Z " fill="#FEE0D1" transform="translate(341,75)"/>
<path d="M0 0 C-4.55 2.67 -7.74 3.32 -13 3 C-13 3.66 -13 4.32 -13 5 C-15.97 5 -18.94 5 -22 5 C-22 4.67 -22 4.34 -22 4 C-20.95 3.72 -19.9 3.45 -18.82 3.16 C-17.45 2.79 -16.07 2.43 -14.69 2.06 C-13.65 1.79 -13.65 1.79 -12.6 1.51 C-3.19 -0.99 -3.19 -0.99 0 0 Z " fill="#FCC9B8" transform="translate(496,718)"/>
<path d="M0 0 C2.37 0.71 4.74 1.42 7.11 2.13 C8.06 2.42 9.02 2.71 10 3 C12.72 3.82 15.44 4.63 18.16 5.45 C18.77 5.63 19.38 5.81 20 6 C16.02 7.15 13.08 6.86 9 6 C7.3 5.05 5.63 4.06 4 3 C1.81 2.3 1.81 2.3 0 2 C0 1.34 0 0.68 0 0 Z " fill="#DA4737" transform="translate(308,637)"/>
<path d="M0 0 C0.33 0 0.66 0 1 0 C1.14 8.57 1.14 8.57 0 12 C-0.99 12 -1.98 12 -3 12 C-3.33 13.32 -3.66 14.64 -4 16 C-5 14 -5 14 -4 10.74 C-3.53 9.45 -3.05 8.16 -2.56 6.88 C-2.32 6.22 -2.08 5.56 -1.83 4.88 C-1.22 3.25 -0.61 1.62 0 0 Z " fill="#FDD7C7" transform="translate(716,498)"/>
<path d="M0 0 C1.14 3.72 0.67 5.47 -1 9 C-1.66 9 -2.32 9 -3 9 C-3 9.66 -3 10.32 -3 11 C-3.66 11 -4.32 11 -5 11 C-5.33 12.65 -5.66 14.3 -6 16 C-6.66 16 -7.32 16 -8 16 C-6.43 10.03 -3.25 5.17 0 0 Z " fill="#FEDACD" transform="translate(564,484)"/>
<path d="M0 0 C0 3 0 3 -1.5 4.54 C-2.14 5.04 -2.78 5.54 -3.44 6.06 C-6.16 8.17 -6.16 8.17 -8 11 C-7.34 11.33 -6.68 11.66 -6 12 C-8.64 12.33 -11.28 12.66 -14 13 C-9.56 8.41 -4.8 4.21 0 0 Z " fill="#E75038" transform="translate(197,143)"/>
<path d="M0 0 C0 0.66 0 1.32 0 2 C-0.99 2.5 -0.99 2.5 -2 3 C-2.72 4.64 -3.39 6.31 -4 8 C-5.65 7.67 -7.3 7.34 -9 7 C-9 7.66 -9 8.32 -9 9 C-10.32 8.67 -11.64 8.34 -13 8 C-11.21 6.66 -9.42 5.33 -7.62 4 C-6.63 3.26 -5.63 2.51 -4.6 1.75 C-2 0 -2 0 0 0 Z " fill="#EB4D35" transform="translate(211,134)"/>
<path d="M0 0 C1.32 0 2.64 0 4 0 C3.72 0.54 3.45 1.08 3.16 1.64 C1.84 4.32 0.61 7.03 -0.62 9.75 C-1.07 10.73 -1.52 11.72 -1.98 12.73 C-2.48 13.86 -2.48 13.86 -3 15 C-3.33 15 -3.66 15 -4 15 C-4 12.69 -4 10.38 -4 8 C-3.34 8 -2.68 8 -2 8 C-2 7.34 -2 6.68 -2 6 C-1.34 6 -0.68 6 0 6 C0 4.02 0 2.04 0 0 Z " fill="#EA4A32" transform="translate(303,345)"/>
<path d="M0 0 C0 0.66 0 1.32 0 2 C-1.32 2 -2.64 2 -4 2 C-4 2.66 -4 3.32 -4 4 C-7.93 7.09 -11.02 8.53 -16 9 C-12.53 4.74 -5.69 0 0 0 Z " fill="#FDDFD2" transform="translate(355,305)"/>
<path d="M0 0 C3.66 1.43 7.24 2.99 10.81 4.62 C12.28 5.29 12.28 5.29 13.77 5.98 C14.51 6.31 15.24 6.65 16 7 C14.02 7.99 14.02 7.99 12 9 C12 8.34 12 7.68 12 7 C11.3 6.83 10.6 6.66 9.88 6.48 C8.97 6.24 8.06 6 7.12 5.75 C5.77 5.4 5.77 5.4 4.38 5.05 C2 4 2 4 0.68 1.89 C0.46 1.27 0.23 0.64 0 0 Z " fill="#FDDFD3" transform="translate(255,698)"/>
<path d="M0 0 C2.64 2.41 4.4 5.02 6.25 8.06 C7.06 9.38 7.06 9.38 7.89 10.72 C8.26 11.47 8.62 12.23 9 13 C8.67 13.66 8.34 14.32 8 15 C7.38 14.36 6.76 13.72 6.12 13.06 C4.17 10.96 4.17 10.96 2 10 C1.37 7.71 1.37 7.71 0.88 4.94 C0.71 4.02 0.54 3.1 0.37 2.15 C0.25 1.44 0.12 0.73 0 0 Z " fill="#E14433" transform="translate(177,524)"/>
<path d="M0 0 C1.82 0.95 3.63 1.91 5.44 2.88 C6.45 3.41 7.46 3.94 8.5 4.49 C11 6 11 6 12 8 C8.7 7.34 5.4 6.68 2 6 C1.34 4.02 0.68 2.04 0 0 Z " fill="#E34232" transform="translate(262,613)"/>
<path d="M0 0 C0.66 0 1.32 0 2 0 C2 1.32 2 2.64 2 4 C3.32 4 4.64 4 6 4 C6.12 4.97 6.25 5.94 6.38 6.94 C6.58 7.95 6.79 8.96 7 10 C7.66 10.33 8.32 10.66 9 11 C8.01 11 7.02 11 6 11 C4.18 9.03 4.18 9.03 2.31 6.5 C1.69 5.66 1.07 4.83 0.43 3.97 C-0.04 3.32 -0.52 2.67 -1 2 C-0.67 1.34 -0.34 0.68 0 0 Z " fill="#EB4B33" transform="translate(253,509)"/>
<path d="M0 0 C0.66 0.33 1.32 0.66 2 1 C0.75 3 0.75 3 -1 5 C-2.32 5 -3.64 5 -5 5 C-5 5.66 -5 6.32 -5 7 C-5.99 7.66 -6.98 8.32 -8 9 C-9.32 8.67 -10.64 8.34 -12 8 C-8.04 5.36 -4.08 2.72 0 0 Z " fill="#E94F38" transform="translate(304,246)"/>
<path d="M0 0 C0.33 0.66 0.66 1.32 1 2 C0.36 2.91 -0.28 3.81 -0.94 4.75 C-2.61 7.39 -3.54 8.99 -4 12 C-4.66 12 -5.32 12 -6 12 C-6 12.66 -6 13.32 -6 14 C-7.32 14.33 -8.64 14.66 -10 15 C-9.08 13.62 -8.17 12.25 -7.25 10.88 C-6.71 10.06 -6.16 9.24 -5.6 8.4 C-3.73 5.6 -1.87 2.8 0 0 Z " fill="#EC5D47" transform="translate(133,209)"/>
<path d="M0 0 C-1.32 0.33 -2.64 0.66 -4 1 C-4 1.66 -4 2.32 -4 3 C-7.63 3.33 -11.26 3.66 -15 4 C-12.61 2.41 -10.69 1.35 -8.06 0.31 C-7.39 0.04 -6.72 -0.23 -6.04 -0.51 C-3.67 -1.08 -2.28 -0.76 0 0 Z " fill="#FED5CD" transform="translate(320,164)"/>
<path d="M0 0 C0.99 0.33 1.98 0.66 3 1 C2.67 2.32 2.34 3.64 2 5 C-2.87 4.4 -7.33 3.43 -12 2 C-8.32 0.82 -4.83 1 -1 1 C-0.67 0.67 -0.34 0.34 0 0 Z " fill="#FBD8CD" transform="translate(340,642)"/>
<path d="M0 0 C1.98 0.99 1.98 0.99 4 2 C4.75 4.62 4.75 4.62 5 7 C5.66 7 6.32 7 7 7 C7 8.32 7 9.64 7 11 C7.99 11.33 8.98 11.66 10 12 C9.34 12 8.68 12 8 12 C7.67 12.66 7.34 13.32 7 14 C4.69 9.38 2.38 4.76 0 0 Z " fill="#FEE1D8" transform="translate(174,517)"/>
<path d="M0 0 C2.79 1.39 2.93 3.16 4 6 C4.33 6.33 4.66 6.66 5 7 C5.23 8.85 5.41 10.7 5.56 12.56 C5.69 14.08 5.69 14.08 5.82 15.63 C5.91 16.8 5.91 16.8 6 18 C3.87 14.81 2.98 12.1 1.88 8.44 C1.52 7.28 1.17 6.12 0.8 4.93 C0 2 0 2 0 0 Z " fill="#E54F37" transform="translate(78,479)"/>
<path d="M0 0 C1.44 -0.05 2.87 -0.09 4.31 -0.12 C5.11 -0.15 5.91 -0.17 6.74 -0.2 C9 0 9 0 12 2 C12.33 2.99 12.66 3.98 13 5 C11.39 4.55 9.79 4.09 8.19 3.62 C6.85 3.24 6.85 3.24 5.48 2.85 C3 2 3 2 0 0 Z " fill="#FEDED7" transform="translate(509,91)"/>
<path d="M0 0 C0 0.66 0 1.32 0 2 C-6.08 3.7 -10.77 4.13 -17 3 C-17 2.67 -17 2.34 -17 2 C-14.92 1.66 -12.83 1.33 -10.75 1 C-9.59 0.81 -8.43 0.63 -7.23 0.44 C-4 0 -4 0 0 0 Z " fill="#FFDFD6" transform="translate(440,579)"/>
<path d="M0 0 C4.33 4.33 8.67 8.67 13 13 C12.34 13.66 11.68 14.32 11 15 C9.16 12.88 7.33 10.75 5.5 8.62 C4.71 7.72 4.71 7.72 3.91 6.8 C0 2.23 0 2.23 0 0 Z " fill="#D94B3A" transform="translate(201,559)"/>
<path d="M0 0 C2.11 3.17 2.76 5.51 3.62 9.19 C3.89 10.27 4.15 11.36 4.41 12.48 C4.61 13.31 4.8 14.14 5 15 C4.01 15.5 4.01 15.5 3 16 C3 15.01 3 14.02 3 13 C2.34 13 1.68 13 1 13 C0.67 8.71 0.34 4.42 0 0 Z " fill="#E3564E" transform="translate(154,467)"/>
<path d="M0 0 C0.33 0 0.66 0 1 0 C1.33 1.98 1.66 3.96 2 6 C1.01 6.33 0.02 6.66 -1 7 C-1 7.99 -1 8.98 -1 10 C-1.66 10 -2.32 10 -3 10 C-3 10.99 -3 11.98 -3 13 C-3.66 13 -4.32 13 -5 13 C-4.55 11.58 -4.09 10.17 -3.62 8.75 C-3.24 7.57 -3.24 7.57 -2.85 6.36 C-2.05 4.13 -1.1 2.09 0 0 Z " fill="#E85335" transform="translate(502,438)"/>
<path d="M0 0 C3.96 0 7.92 0 12 0 C12.66 1.65 13.32 3.3 14 5 C12.23 4.55 10.46 4.09 8.69 3.62 C7.21 3.24 7.21 3.24 5.7 2.85 C3 2 3 2 0 0 Z " fill="#EC5A43" transform="translate(428,298)"/>
<path d="M0 0 C3.89 1.39 6.97 3.22 10.31 5.62 C11.2 6.26 12.08 6.89 12.99 7.54 C13.65 8.02 14.32 8.5 15 9 C13.68 9.33 12.36 9.66 11 10 C10.67 9.01 10.34 8.02 10 7 C8.36 6.27 6.69 5.61 5 5 C2.19 3.5 2.19 3.5 0 2 C0 1.34 0 0.68 0 0 Z " fill="#DE422E" transform="translate(496,247)"/>
<path d="M0 0 C3.96 0.33 7.92 0.66 12 1 C8.8 2.6 6.65 3.43 3.25 4.12 C2.45 4.29 1.65 4.46 0.83 4.63 C0.22 4.75 -0.38 4.88 -1 5 C-0.67 3.35 -0.34 1.7 0 0 Z " fill="#FEE2D2" transform="translate(346,224)"/>
<path d="M0 0 C0.33 1.32 0.66 2.64 1 4 C-0.65 3.72 -2.29 3.42 -3.94 3.12 C-5.31 2.88 -5.31 2.88 -6.71 2.63 C-7.47 2.42 -8.22 2.22 -9 2 C-9.33 1.34 -9.66 0.68 -10 0 C-6.34 -0.75 -3.58 -1.24 0 0 Z " fill="#FDE2D6" transform="translate(502,85)"/>
<path d="M0 0 C1 2 1 2 0.25 5.06 C-0.16 6.03 -0.58 7 -1 8 C-1.99 8.33 -2.98 8.66 -4 9 C-4.33 9.66 -4.66 10.32 -5 11 C-5.99 11 -6.98 11 -8 11 C-7.67 10.01 -7.34 9.02 -7 8 C-6.34 8 -5.68 8 -5 8 C-4.73 7.42 -4.46 6.85 -4.19 6.25 C-2.98 3.97 -1.59 2.03 0 0 Z " fill="#FED6CD" transform="translate(653,612)"/>
<path d="M0 0 C2.64 0.66 5.28 1.32 8 2 C8 3.32 8 4.64 8 6 C8.66 6.33 9.32 6.66 10 7 C9.67 7.66 9.34 8.32 9 9 C7.68 7.88 6.37 6.75 5.06 5.62 C4.33 5 3.6 4.37 2.85 3.73 C1 2 1 2 0 0 Z " fill="#FDE1D3" transform="translate(226,584)"/>
<path d="M0 0 C4.45 0.99 4.45 0.99 9 2 C9.33 3.98 9.66 5.96 10 8 C6.02 5.84 3.11 3.29 0 0 Z " fill="#EA4933" transform="translate(275,535)"/>
<path d="M0 0 C1.62 2.43 2.62 4.31 3.62 7 C3.89 7.68 4.15 8.36 4.41 9.06 C5 11 5 11 5 14 C4.34 14 3.68 14 3 14 C0.81 10.72 0.65 9.17 0.38 5.31 C0.3 4.32 0.23 3.32 0.15 2.3 C0.1 1.54 0.05 0.78 0 0 Z " fill="#FED8C9" transform="translate(86,507)"/>
<path d="M0 0 C1.21 2.33 2.17 4.5 3 7 C2.38 7.43 1.76 7.87 1.12 8.31 C-1.22 10 -1.22 10 -3 13 C-2.45 8.43 -1.58 4.33 0 0 Z " fill="#FDDCCE" transform="translate(722,478)"/>
<path d="M0 0 C1.96 0.28 3.92 0.58 5.88 0.88 C7.51 1.12 7.51 1.12 9.18 1.37 C12 2 12 2 14 4 C8.58 4.23 4.23 3.47 -1 2 C-0.67 1.34 -0.34 0.68 0 0 Z " fill="#DA4C3B" transform="translate(440,225)"/>
<path d="M0 0 C0.33 1.32 0.66 2.64 1 4 C0.34 4 -0.32 4 -1 4 C-1.33 5.65 -1.66 7.3 -2 9 C-2.99 9.33 -3.98 9.66 -5 10 C-5 10.66 -5 11.32 -5 12 C-5.66 12 -6.32 12 -7 12 C-5.62 9.13 -4.08 6.44 -2.38 3.75 C-1.93 3.04 -1.48 2.34 -1.02 1.61 C-0.69 1.08 -0.35 0.55 0 0 Z " fill="#EA5B42" transform="translate(612,539)"/>
<path d="M0 0 C2.11 3.17 2.76 5.51 3.62 9.19 C3.89 10.27 4.15 11.36 4.41 12.48 C4.61 13.31 4.8 14.14 5 15 C2.13 12.19 0.13 10.15 -0.12 5.96 C-0.12 3.98 -0.07 1.99 0 0 Z " fill="#FDCFBF" transform="translate(81,491)"/>
<path d="M0 0 C1.15 0.93 2.3 1.87 3.44 2.81 C4.08 3.33 4.71 3.86 5.37 4.39 C7 6 7 6 8 9 C7.34 9 6.68 9 6 9 C6 8.34 6 7.68 6 7 C4.35 6.67 2.7 6.34 1 6 C0.45 3.92 0 2.16 0 0 Z " fill="#E74E39" transform="translate(635,173)"/>
<path d="M0 0 C0.33 0.66 0.66 1.32 1 2 C1.72 1.67 2.44 1.34 3.19 1 C6.02 -0.01 8.03 -0.17 11 0 C8.15 2.32 5.52 3.92 2 5 C1.01 4.67 0.02 4.34 -1 4 C-0.67 2.68 -0.34 1.36 0 0 Z " fill="#E74331" transform="translate(530,699)"/>
<path d="M0 0 C0.33 0.66 0.66 1.32 1 2 C-2.32 7.78 -2.32 7.78 -5.75 8.88 C-6.49 8.92 -7.24 8.96 -8 9 C-7.04 7.87 -6.08 6.75 -5.12 5.62 C-4.59 5 -4.06 4.37 -3.51 3.73 C-2.39 2.44 -1.21 1.21 0 0 Z " fill="#FED6C7" transform="translate(634,633)"/>
<path d="M0 0 C2.31 0.66 4.62 1.32 7 2 C7 3.32 7 4.64 7 6 C7.99 6.33 8.98 6.66 10 7 C9.34 7.66 8.68 8.32 8 9 C6.66 7.69 5.33 6.38 4 5.06 C3.26 4.33 2.51 3.6 1.75 2.85 C0 1 0 1 0 0 Z " fill="#EB4B35" transform="translate(163,631)"/>
<path d="M0 0 C0.66 0.33 1.32 0.66 2 1 C1.67 2.65 1.34 4.3 1 6 C0.01 6.33 -0.98 6.66 -2 7 C-2.33 7.66 -2.66 8.32 -3 9 C-3.66 9 -4.32 9 -5 9 C-3.75 5.54 -2.32 2.85 0 0 Z " fill="#EF563C" transform="translate(618,530)"/>
<path d="M0 0 C-2.31 2.31 -4.62 4.62 -7 7 C-7.33 5.68 -7.66 4.36 -8 3 C-7.34 3 -6.68 3 -6 3 C-6 2.01 -6 1.02 -6 0 C-3 -1 -3 -1 0 0 Z " fill="#EB523A" transform="translate(328,322)"/>
<path d="M0 0 C1.32 0.33 2.64 0.66 4 1 C2.02 3.31 0.04 5.62 -2 8 C-2.66 6.68 -3.32 5.36 -4 4 C-2.25 1.94 -2.25 1.94 0 0 Z " fill="#F14835" transform="translate(645,617)"/>
<path d="M0 0 C2.57 3.85 2.55 6.43 3 11 C2.34 10.34 1.68 9.68 1 9 C0.01 9.5 0.01 9.5 -1 10 C-0.67 6.7 -0.34 3.4 0 0 Z " fill="#FDD6C7" transform="translate(220,444)"/>
<path d="M0 0 C1.32 0 2.64 0 4 0 C4 1.65 4 3.3 4 5 C4.66 5 5.32 5 6 5 C6 6.65 6 8.3 6 10 C3.26 6.8 1.37 4 0 0 Z " fill="#E8462E" transform="translate(491,342)"/>
<path d="M0 0 C1.38 3.13 0.9 4.29 -0.25 7.62 C-2 11 -2 11 -5 13 C-4.55 11.58 -4.09 10.17 -3.62 8.75 C-3.24 7.57 -3.24 7.57 -2.85 6.36 C-2.05 4.13 -1.1 2.09 0 0 Z " fill="#EA6246" transform="translate(98,267)"/>
<path d="M0 0 C-0.31 1.94 -0.31 1.94 -1 4 C-4.48 5.16 -6.46 4.71 -10 4 C-6.86 1.91 -3.85 0 0 0 Z " fill="#ED5743" transform="translate(501,633)"/>
<path d="M0 0 C-3.07 2.98 -4.46 3.96 -8.81 4.25 C-9.86 4.17 -10.92 4.09 -12 4 C-9.95 1.95 -8.67 1.32 -6 0.31 C-5.3 0.04 -4.6 -0.23 -3.88 -0.51 C-2 -1 -2 -1 0 0 Z " fill="#FEE0D7" transform="translate(474,569)"/>
<path d="M0 0 C0.66 0 1.32 0 2 0 C0.43 4.31 -1.68 8.06 -4 12 C-5.39 7.82 -3.82 5.87 -2 2 C-1.34 2 -0.68 2 0 2 C0 1.34 0 0.68 0 0 Z " fill="#FEE2D2" transform="translate(621,521)"/>
<path d="M0 0 C0 3 0 3 -1 6 C-1.66 6 -2.32 6 -3 6 C-3 6.99 -3 7.98 -3 9 C-4.98 9.99 -4.98 9.99 -7 11 C-5.51 6.41 -3.15 3.56 0 0 Z " fill="#E75944" transform="translate(366,371)"/>
<path d="M0 0 C-1.65 2.64 -3.3 5.28 -5 8 C-5.33 6.68 -5.66 5.36 -6 4 C-5.34 4 -4.68 4 -4 4 C-4 3.34 -4 2.68 -4 2 C-5.32 1.67 -6.64 1.34 -8 1 C-5.07 0.02 -3.04 -0.08 0 0 Z " fill="#FFE6D5" transform="translate(247,300)"/>
<path d="M0 0 C0.33 0.99 0.66 1.98 1 3 C0.01 3.33 -0.98 3.66 -2 4 C-2.33 5.98 -2.66 7.96 -3 10 C-4.65 10 -6.3 10 -8 10 C-7.04 8.71 -6.08 7.42 -5.12 6.12 C-4.59 5.41 -4.06 4.69 -3.51 3.95 C-2 2 -2 2 0 0 Z " fill="#FEDBCE" transform="translate(215,228)"/>
<path d="M0 0 C0.66 0.33 1.32 0.66 2 1 C0.5 3 0.5 3 -2 5 C-4.76 5.36 -7.2 5.19 -10 5 C-6.77 2.84 -3.63 1.39 0 0 Z " fill="#FDCFC6" transform="translate(532,703)"/>
<path d="M0 0 C0 0.66 0 1.32 0 2 C-3.04 4.03 -5.48 5.07 -9 6 C-11.19 5.55 -11.19 5.55 -13 5 C-11.21 4.16 -9.42 3.33 -7.62 2.5 C-6.63 2.04 -5.63 1.57 -4.6 1.09 C-2 0 -2 0 0 0 Z " fill="#EA604A" transform="translate(518,625)"/>
<path d="M0 0 C4.88 4.75 4.88 4.75 6 7 C5.4 6.81 4.8 6.63 4.19 6.44 C1.84 5.78 1.84 5.78 -1 7 C-1 6.01 -1 5.02 -1 4 C-0.34 4 0.32 4 1 4 C0.67 2.68 0.34 1.36 0 0 Z " fill="#FDE5D7" transform="translate(156,624)"/>
<path d="M0 0 C4.71 0.48 8.67 0.97 13 3 C12.67 3.66 12.34 4.32 12 5 C10.37 4.55 8.75 4.09 7.12 3.62 C5.77 3.24 5.77 3.24 4.38 2.85 C2 2 2 2 0 0 Z " fill="#E74F40" transform="translate(328,568)"/>
<path d="M0 0 C0.66 0 1.32 0 2 0 C2 0.66 2 1.32 2 2 C3.32 2.33 4.64 2.66 6 3 C6.33 5.31 6.66 7.62 7 10 C4.35 6.8 2.06 3.61 0 0 Z " fill="#FEE5D7" transform="translate(185,536)"/>
<path d="M0 0 C0.66 0 1.32 0 2 0 C2 0.99 2 1.98 2 3 C2.66 3 3.32 3 4 3 C4.66 5.31 5.32 7.62 6 10 C5.01 10.5 5.01 10.5 4 11 C3.33 9.73 2.66 8.46 2 7.19 C1.63 6.48 1.26 5.77 0.88 5.04 C0 3 0 3 0 0 Z " fill="#E95237" transform="translate(97,532)"/>
<path d="M0 0 C0.45 0.47 0.91 0.95 1.38 1.44 C2.93 3.09 2.93 3.09 5 4 C4.34 5.32 3.68 6.64 3 8 C1.02 5.69 -0.96 3.38 -3 1 C-2.01 0.67 -1.02 0.34 0 0 Z " fill="#FEE4D9" transform="translate(322,472)"/>
<path d="M0 0 C1.77 -0.08 3.54 -0.14 5.31 -0.19 C6.3 -0.22 7.28 -0.26 8.3 -0.29 C11 0 11 0 12.86 1.51 C13.23 2 13.61 2.49 14 3 C4.59 2.04 4.59 2.04 0 1 C0 0.67 0 0.34 0 0 Z " fill="#FBD9C9" transform="translate(433,223)"/>
<path d="M0 0 C-3.28 2.19 -4.83 2.35 -8.69 2.62 C-10.18 2.74 -10.18 2.74 -11.7 2.85 C-12.84 2.93 -12.84 2.93 -14 3 C-9.74 0.16 -5.04 -2.01 0 0 Z " fill="#FDD4C9" transform="translate(344,157)"/>
<path d="M0 0 C4.29 0.99 8.58 1.98 13 3 C13 3.33 13 3.66 13 4 C10.03 4 7.06 4 4 4 C4 3.34 4 2.68 4 2 C2.68 1.67 1.36 1.34 0 1 C0 0.67 0 0.34 0 0 Z " fill="#FDD7C9" transform="translate(310,719)"/>
<path d="M0 0 C0.81 0.1 1.62 0.2 2.45 0.31 C3.06 0.39 3.68 0.48 4.31 0.56 C1.41 2.22 -0.6 2.8 -3.94 2.69 C-5.79 2.63 -5.79 2.63 -7.69 2.56 C-7.69 1.9 -7.69 1.24 -7.69 0.56 C-4.59 -0.47 -3.16 -0.41 0 0 Z " fill="#FEE6D6" transform="translate(439.6875,648.4375)"/>
<path d="M0 0 C0.99 0 1.98 0 3 0 C3.33 1.65 3.66 3.3 4 5 C4.66 5 5.32 5 6 5 C5.67 5.66 5.34 6.32 5 7 C2.69 5.35 0.38 3.7 -2 2 C-1.34 1.34 -0.68 0.68 0 0 Z " fill="#FDDFD6" transform="translate(248,600)"/>
<path d="M0 0 C0.33 1.32 0.66 2.64 1 4 C-1.97 6.48 -1.97 6.48 -5 9 C-5.66 8.67 -6.32 8.34 -7 8 C-4.69 5.36 -2.38 2.72 0 0 Z " fill="#E64F33" transform="translate(598,559)"/>
<path d="M0 0 C0.33 0 0.66 0 1 0 C0.74 2.34 0.41 4.68 0 7 C-0.99 7.5 -0.99 7.5 -2 8 C-2.33 8.99 -2.66 9.98 -3 11 C-3.66 11 -4.32 11 -5 11 C-3.55 7.21 -1.85 3.61 0 0 Z " fill="#EA5640" transform="translate(624,519)"/>
<path d="M0 0 C-0.99 1.48 -0.99 1.48 -2 3 C-4.16 3.29 -4.16 3.29 -6.62 3.19 C-7.44 3.16 -8.26 3.13 -9.1 3.11 C-10.04 3.05 -10.04 3.05 -11 3 C-3.71 -1.86 -3.71 -1.86 0 0 Z " fill="#E75842" transform="translate(293,92)"/>
<path d="M0 0 C0.33 0 0.66 0 1 0 C1 2.64 1 5.28 1 8 C-0.98 8.99 -0.98 8.99 -3 10 C-2.01 6.7 -1.02 3.4 0 0 Z " fill="#E85C41" transform="translate(92,280)"/>
<path d="M0 0 C0.66 0 1.32 0 2 0 C2 0.66 2 1.32 2 2 C1.01 2.66 0.02 3.32 -1 4 C-1.33 4.99 -1.66 5.98 -2 7 C-3.65 7 -5.3 7 -7 7 C-4.67 4.67 -2.33 2.33 0 0 Z " fill="#FEDED6" transform="translate(240,205)"/>
<path d="M0 0 C3.63 1.98 7.26 3.96 11 6 C9.68 6.33 8.36 6.66 7 7 C7 6.34 7 5.68 7 5 C5.55 4.6 5.55 4.6 4.06 4.19 C3.05 3.8 2.04 3.4 1 3 C0.67 2.01 0.34 1.02 0 0 Z " fill="#DD443A" transform="translate(568,120)"/>
<path d="M0 0 C3.91 1.16 6.87 2.36 10 5 C9.01 5.33 8.02 5.66 7 6 C7 5.34 7 4.68 7 4 C4.03 3.5 4.03 3.5 1 3 C0.67 2.01 0.34 1.02 0 0 Z " fill="#FFE0D6" transform="translate(244,693)"/>
<path d="M0 0 C2.64 1.98 5.28 3.96 8 6 C7.01 6.33 6.02 6.66 5 7 C2.31 5.25 2.31 5.25 0 3 C0 2.01 0 1.02 0 0 Z " fill="#FEDFD1" transform="translate(190,656)"/>
<path d="M0 0 C1.32 0 2.64 0 4 0 C4 0.66 4 1.32 4 2 C5.32 2 6.64 2 8 2 C8.66 3.32 9.32 4.64 10 6 C6 4.63 3.2 2.74 0 0 Z " fill="#E64B37" transform="translate(296,551)"/>
<path d="M0 0 C0.66 0 1.32 0 2 0 C0.25 5.75 0.25 5.75 -2 8 C-2.33 5.69 -2.66 3.38 -3 1 C-2.01 1.33 -1.02 1.66 0 2 C0 1.34 0 0.68 0 0 Z " fill="#EC4D2F" transform="translate(699,537)"/>
<path d="M0 0 C0.33 0 0.66 0 1 0 C1 2.97 1 5.94 1 9 C0.34 9 -0.32 9 -1 9 C-1.33 9.66 -1.66 10.32 -2 11 C-1.12 3.38 -1.12 3.38 0 0 Z " fill="#EA5F4A" transform="translate(220,359)"/>
<path d="M0 0 C0.88 3.1 0.99 4.91 0 8 C-0.66 8 -1.32 8 -2 8 C-2.33 8.99 -2.66 9.98 -3 11 C-3.33 10.34 -3.66 9.68 -4 9 C-3.22 6.84 -3.22 6.84 -2.06 4.38 C-1.68 3.56 -1.3 2.74 -0.91 1.9 C-0.61 1.27 -0.31 0.65 0 0 Z " fill="#FDCDBF" transform="translate(171,290)"/>
<path d="M0 0 C1.12 3.75 1.12 3.75 0 6 C-0.66 6 -1.32 6 -2 6 C-2.33 6.99 -2.66 7.98 -3 9 C-3.33 8.01 -3.66 7.02 -4 6 C-2.06 2.81 -2.06 2.81 0 0 Z " fill="#FEDFCF" transform="translate(185,266)"/>
<path d="M0 0 C1.98 0 3.96 0 6 0 C6 0.99 6 1.98 6 3 C6.66 3.33 7.32 3.66 8 4 C7.67 4.66 7.34 5.32 7 6 C5.83 5.19 4.66 4.38 3.5 3.56 C2.85 3.11 2.2 2.66 1.53 2.19 C1.03 1.8 0.52 1.41 0 1 C0 0.67 0 0.34 0 0 Z " fill="#FEE5D8" transform="translate(588,132)"/>
<path d="M0 0 C1.46 -0.08 2.92 -0.14 4.38 -0.19 C5.19 -0.22 6 -0.26 6.84 -0.29 C7.55 -0.2 8.26 -0.1 9 0 C9.66 0.99 10.32 1.98 11 3 C6.88 2.53 3.64 1.98 0 0 Z " fill="#FDD3C4" transform="translate(472,80)"/>
<path d="M0 0 C2.64 1.98 5.28 3.96 8 6 C7.01 6.33 6.02 6.66 5 7 C4.57 6.53 4.13 6.05 3.69 5.56 C1.98 3.76 1.98 3.76 -1 3 C-0.67 2.01 -0.34 1.02 0 0 Z " fill="#E24836" transform="translate(234,592)"/>
<path d="M0 0 C2.96 2.81 5.44 5.18 7 9 C4.62 8.44 4.62 8.44 2 7 C0.69 3.38 0.69 3.38 0 0 Z " fill="#DC4935" transform="translate(186,539)"/>
<path d="M0 0 C0 3 0 3 -2.5 5.69 C-3.33 6.45 -4.15 7.21 -5 8 C-5.66 7.67 -6.32 7.34 -7 7 C-4.69 4.69 -2.38 2.38 0 0 Z " fill="#FED3C6" transform="translate(534,526)"/>
<path d="M0 0 C-0.33 0.66 -0.66 1.32 -1 2 C-4.63 1.67 -8.26 1.34 -12 1 C-12 0.67 -12 0.34 -12 0 C-3.43 -1.29 -3.43 -1.29 0 0 Z " fill="#E75B49" transform="translate(424,507)"/>
<path d="M0 0 C2.25 2.69 3.88 4.65 5 8 C3.68 7.67 2.36 7.34 1 7 C0.67 4.69 0.34 2.38 0 0 Z " fill="#FEE0D2" transform="translate(240,493)"/>
<path d="M0 0 C2.19 3.28 3 6.21 4 10 C3.01 10.5 3.01 10.5 2 11 C0.81 7.12 0 4.08 0 0 Z " fill="#E25245" transform="translate(710,289)"/>
<path d="M0 0 C0.69 1.62 0.69 1.62 1 4 C-0.44 7.25 -0.44 7.25 -2 10 C-2.66 10 -3.32 10 -4 10 C-3 6.21 -2.19 3.28 0 0 Z " fill="#E76048" transform="translate(103,257)"/>
<path d="M0 0 C2.94 0.75 2.94 0.75 6 2 C6.88 4.12 6.88 4.12 7 6 C6.01 6 5.02 6 4 6 C1.81 3 1.81 3 0 0 Z " fill="#FEE6D7" transform="translate(648,186)"/>
<path d="M0 0 C1.98 0 3.96 0 6 0 C6 1.98 6 3.96 6 6 C3.98 4.36 1.98 2.69 0 1 C0 0.67 0 0.34 0 0 Z " fill="#FEE0D3" transform="translate(642,180)"/>
<path d="M0 0 C-1.69 1.56 -1.69 1.56 -4 3 C-6.75 2.69 -6.75 2.69 -9 2 C-5.95 -1.05 -3.95 -1.23 0 0 Z " fill="#FDDACF" transform="translate(329,161)"/>
<path d="M0 0 C0 0.33 0 0.66 0 1 C-4.16 1.08 -7.95 0.98 -12 0 C-12 -0.33 -12 -0.66 -12 -1 C-7.28 -1.92 -4.33 -2.23 0 0 Z " fill="#FAC8B8" transform="translate(392,507)"/>
<path d="M0 0 C0.66 0 1.32 0 2 0 C1.01 3.3 0.02 6.6 -1 10 C-1.33 10 -1.66 10 -2 10 C-2.18 6.05 -2.09 3.4 0 0 Z " fill="#FEDECD" transform="translate(633,496)"/>
<path d="M0 0 C0.99 0 1.98 0 3 0 C3.99 1.98 4.98 3.96 6 6 C5.34 6.66 4.68 7.32 4 8 C2.68 5.36 1.36 2.72 0 0 Z " fill="#FEE1D8" transform="translate(558,307)"/>
<path d="M0 0 C2.02 1.64 4.02 3.31 6 5 C6 5.33 6 5.66 6 6 C4.35 6 2.7 6 1 6 C0.67 4.02 0.34 2.04 0 0 Z " fill="#E44B3A" transform="translate(629,167)"/>
<path d="M0 0 C4.46 1.98 4.46 1.98 9 4 C5 5 5 5 2.25 3.69 C1.51 3.13 0.76 2.57 0 2 C0 1.34 0 0.68 0 0 Z " fill="#E14E44" transform="translate(539,104)"/>
</svg>
